<svg width="338" height="338" viewBox="0 0 338 338" fill="none" xmlns="http://www.w3.org/2000/svg">
<path fill-rule="evenodd" clip-rule="evenodd" d="M201.738 251.161C200.135 251.161 198.833 252.463 198.833 254.07C198.833 255.671 200.135 256.979 201.738 256.979C203.349 256.979 204.65 255.671 204.65 254.07C204.65 252.463 203.349 251.161 201.738 251.161L204.134 245.131H204.133C203.329 245.132 202.68 245.779 202.68 246.583C202.68 247.386 203.33 248.04 204.133 248.04C204.938 248.04 205.589 247.386 205.589 246.583C205.589 245.779 204.939 245.132 204.134 245.131H204.133H204.134L201.738 251.161ZM150.656 141.293L205.355 63.5129C208.385 64.5642 211.394 65.7458 214.375 67.0794V67.0814C227.733 73.0635 239.321 81.3568 248.877 91.2872C248.348 90.913 247.704 90.6913 247.013 90.6913C245.59 90.6913 244.362 91.5967 243.929 92.9282L238.66 92.288C238.467 91.4917 237.762 90.9221 236.919 90.9221C235.931 90.9221 235.128 91.7194 235.118 92.704L225.236 96.3558C224.647 95.3899 223.613 94.8031 222.476 94.8031C220.869 94.8031 219.52 95.9832 219.274 97.5445L205.971 97.4314C205.706 96.6124 204.943 96.0428 204.062 96.0428C203.851 96.0428 203.641 96.0771 203.439 96.1458L199.169 91.4689C199.169 91.4518 199.171 91.4356 199.171 91.4195C199.171 90.4267 198.362 89.6203 197.371 89.6203C196.377 89.6203 195.568 90.4267 195.568 91.4195C195.568 91.83 195.715 92.2274 195.972 92.545L189.202 101.382C188.756 101.16 188.267 101.045 187.775 101.045L186.346 101.379C185.672 101.713 185.121 102.279 184.807 102.994L181.89 102.42L181.157 103.578L184.523 104.242C184.523 104.261 184.52 104.279 184.52 104.298C184.52 105.53 185.202 106.63 186.283 107.184L183.096 115.17C182.754 115.05 182.402 114.989 182.046 114.989H182.031C181.841 114.989 181.648 115.01 181.436 115.055L177.924 109.04L177.181 110.297L180.244 115.546C179.509 116.036 179.011 116.799 178.854 117.672L172.332 117.797L171.496 119.091L178.882 118.951C178.966 119.327 179.119 119.686 179.328 120.01L171.18 126.546C170.754 126.172 170.209 125.964 169.646 125.964C169.569 125.964 169.493 125.968 169.414 125.976L168.517 123.698L167.664 125.018L168.228 126.451C167.649 126.892 167.3 127.58 167.3 128.31C167.302 129.254 167.856 130.081 168.705 130.451L168.05 135.19C168.018 135.187 167.985 135.188 167.953 135.188C166.224 135.188 164.805 136.543 164.703 138.247L159.834 138.591C159.724 138.324 159.555 138.085 159.343 137.889L155.322 140.135L155.344 140.137C156.363 140.189 156.693 141.376 157.98 141.376C158.907 141.376 159.696 140.745 159.921 139.869L164.891 139.516C165.344 140.813 166.565 141.693 167.953 141.693C169.747 141.693 171.207 140.235 171.207 138.44C171.207 137.168 170.451 136.016 169.298 135.49L169.97 130.632C170.714 130.526 171.367 130.064 171.717 129.394L179.091 132.388C179.089 132.399 179.089 132.414 179.089 132.428C179.089 133.42 179.898 134.227 180.889 134.227C181.677 134.227 182.355 133.722 182.592 132.993L196.281 132.398C196.334 132.623 196.412 132.841 196.515 133.048L182.471 143.802C181.88 143.277 181.128 142.992 180.335 142.992C178.54 142.992 177.079 144.451 177.079 146.247C177.08 148.04 178.54 149.499 180.335 149.499C180.63 149.499 180.923 149.456 181.21 149.374L190.329 167.273C189.843 167.672 189.479 168.202 189.28 168.803L177.898 167.311C177.787 165.618 176.372 164.277 174.653 164.277C172.859 164.277 171.4 165.737 171.4 167.532C171.4 167.616 171.405 167.704 171.412 167.788L159.956 171.052C159.401 169.965 158.299 169.28 157.066 169.28C156.498 169.28 155.942 169.432 155.446 169.719L150.861 164.494C151.112 164.16 151.297 163.792 151.409 163.4L159.453 162.779C159.727 164.361 161.108 165.556 162.738 165.556C164.585 165.556 166.086 164.055 166.086 162.208C166.086 160.363 164.585 158.862 162.738 158.862C161.164 158.862 159.811 159.974 159.483 161.495L151.513 162.109C151.323 160.443 149.903 159.144 148.191 159.144C146.726 159.144 145.43 160.113 144.998 161.49L139.966 160.919C139.837 159.101 138.317 157.661 136.465 157.661C134.869 157.661 133.496 158.732 133.086 160.251L125.562 159.637C125.174 158.24 123.897 157.252 122.429 157.252C120.635 157.252 119.176 158.711 119.176 160.504C119.176 160.733 119.204 160.963 119.265 161.214L111.997 166.368C111.374 165.772 110.551 165.436 109.696 165.436C107.849 165.436 106.348 166.937 106.348 168.784C106.348 169.821 106.829 170.791 107.65 171.429L106.133 175.659C106.087 175.655 106.038 175.653 105.988 175.653C104.511 175.652 103.309 176.854 103.309 178.334C103.309 179.405 103.94 180.352 104.909 180.778L104.744 181.716C103.986 181.882 103.425 182.554 103.425 183.348C103.425 184.245 104.126 184.981 105.007 185.031L106.014 187.945C105.026 188.525 104.403 189.593 104.403 190.743C104.403 192.536 105.863 193.997 107.656 193.997C108.027 193.997 108.393 193.932 108.749 193.801L111.073 197.663C110.4 198.273 110.006 199.148 110.006 200.055C110.006 201.849 111.465 203.31 113.261 203.31C114.725 203.31 115.993 202.332 116.385 200.946L122.493 201.435C122.681 203.07 124.043 204.313 125.72 204.313C127.515 204.313 128.975 202.849 128.975 201.052C128.975 200.837 128.948 200.616 128.892 200.376L134.786 197.828C135.393 198.7 136.385 199.23 137.448 199.23C138.997 199.23 140.31 198.137 140.619 196.639L149.324 196.704C149.416 197.181 149.612 197.629 149.902 198.018L145.088 207.026C143.947 206.748 142.87 207.643 142.87 208.776C142.87 209.767 143.677 210.573 144.67 210.573C144.728 210.573 144.786 210.567 144.839 210.564L148.008 215.862C147.327 216.475 146.928 217.357 146.928 218.276C146.928 219.927 148.198 221.32 149.813 221.503L150.361 224.923C149.698 225.355 149.296 226.082 149.296 226.879C149.296 227.754 149.776 228.539 150.537 228.948L149.885 238.574C149.207 238.802 148.739 239.431 148.739 240.16C148.739 240.948 149.291 241.615 150.037 241.789L150.157 242.521C149.097 243.078 148.425 244.18 148.425 245.393C148.425 247.186 149.884 248.647 151.679 248.647C152.582 248.647 153.432 248.27 154.05 247.607L162.468 251.428C162.428 251.578 162.407 251.73 162.407 251.883C162.407 251.9 162.407 251.915 162.407 251.93L158.749 253.867C158.147 253.294 157.349 252.971 156.52 252.971C154.727 252.971 153.267 254.431 153.267 256.225C153.267 257.873 154.481 259.228 156.088 259.44L156.733 273.667C155.954 273.954 155.413 274.708 155.413 275.561C155.413 276.667 156.315 277.57 157.425 277.57C158.536 277.57 159.438 276.667 159.438 275.561C159.438 275.234 159.359 274.917 159.21 274.63L162.764 270.391C163.24 270.652 163.774 270.792 164.322 270.792C166.117 270.792 167.576 269.332 167.576 267.537C167.576 267.466 167.572 267.394 167.566 267.326L172.927 265.88C173.475 266.989 174.584 267.69 175.837 267.69C177.63 267.69 179.091 266.229 179.091 264.435C179.091 263.181 178.384 262.069 177.269 261.523L179.113 254.605C180.587 254.281 181.67 252.961 181.67 251.441C181.67 250.532 181.287 249.678 180.615 249.061L182.57 241.951C183.514 242.02 184.508 241.639 185.177 240.914L190.079 243.913C190.057 244.025 190.045 244.134 190.045 244.247C190.045 245.24 190.855 246.05 191.846 246.05C192.836 246.05 193.646 245.24 193.646 244.247C193.646 243.527 193.21 242.885 192.559 242.604L192.883 235.656C193.615 235.416 194.122 234.737 194.122 233.949C194.122 232.955 193.312 232.146 192.322 232.146C191.926 232.146 191.547 232.276 191.232 232.52L182.651 227.209C182.676 227.097 182.688 226.982 182.688 226.866C182.688 226.717 182.67 226.57 182.632 226.427L189.797 221.406C190.061 221.553 190.353 221.63 190.652 221.63C191.644 221.63 192.453 220.824 192.453 219.833C192.453 219.504 192.363 219.186 192.188 218.905L194.715 215.065C195.144 215.258 195.592 215.358 196.053 215.358C197.9 215.357 199.405 213.856 199.405 212.01C199.405 211.194 199.112 210.424 198.576 209.814L201.927 205.519C202.305 205.668 202.697 205.746 203.099 205.746C204.893 205.746 206.354 204.285 206.354 202.491C206.354 200.887 205.164 199.532 203.595 199.289L202.625 191.138C203.94 190.708 204.868 189.46 204.868 188.051C204.868 187.444 204.694 186.852 204.36 186.329L207.821 183.046C208.27 183.264 208.74 183.376 209.219 183.376C211.013 183.376 212.474 181.916 212.474 180.122C212.474 179.744 212.406 179.374 212.275 179.016L228.411 169.251C229.028 169.924 229.882 170.307 230.8 170.307C231.767 170.307 232.67 169.881 233.283 169.152L241.095 175.767C240.908 176.185 240.811 176.617 240.811 177.056C240.811 178.85 242.272 180.311 244.066 180.311C245.421 180.311 246.601 179.489 247.083 178.24L254.659 179.259C255.17 180.436 256.338 181.214 257.63 181.214C259.424 181.214 260.885 179.754 260.885 177.96C260.885 177.515 260.789 177.078 260.599 176.658L263.028 175.151C263.339 175.39 263.716 175.522 264.118 175.522C265.022 175.522 265.769 174.855 265.897 173.958L270.973 172.734C271.512 173.92 272.695 174.699 274.01 174.699C275.215 174.699 276.325 174.041 276.913 172.998L279.701 173.936C279.004 187.152 275.914 200.464 270.186 213.268C245.23 269.039 179.785 294.031 124.008 269.07C76.4874 247.816 51.2626 197.498 60.28 148.476L62.015 141.294L150.655 141.293L150.656 141.293ZM159.344 137.889C160.457 136.561 160.039 136.935 159.344 137.889V137.889ZM179.492 32.2965L195.452 60.864L145.472 132.143L58.4842 132.078L42.6329 103.716H129.593L179.492 32.2965ZM8.74771 95.0329L8.8815 141.258C10.2803 141.857 11.2669 143.248 11.272 144.86C11.277 146.435 10.3454 147.799 9.00369 148.43L10.9539 148.422L14.7016 189.827L0.307495 189.877L3.76041 148.447L5.70639 148.441C2.69589 147.051 1.57851 143.368 5.03381 140.849L5.05551 95.4137L71.7194 0.120193H191.46L124.955 95.4137L8.74771 95.0329ZM228.826 25.2555L235.376 28.1761L229.387 35.7377C226.971 38.7644 226.002 40.5327 225.354 41.8521L225.207 41.785C226.335 38.1832 226.74 36.3426 227.057 34.698L228.826 25.2555ZM287.862 110.4L288.49 111.637L288.136 111.895C287.682 112.23 287.725 112.676 287.872 113.086C288.236 114.109 289.251 115.822 290.703 116.98C292.904 118.789 295.066 118.536 297.29 118.146L301.912 117.362C305.235 116.811 306.428 117.885 307.304 120.342L307.924 122.082L294.876 126.737C293.904 127.085 294.035 127.614 294.219 128.127L295.969 133.039C296.154 133.55 296.387 134.044 297.359 133.697L330.365 121.92C331.338 121.573 331.207 121.044 331.021 120.532L329.271 115.62C329.09 115.107 328.853 114.614 327.883 114.961L313.452 120.111L312.667 117.909C311.533 114.737 313.281 113.652 314.707 112.798L320.411 109.378C321.935 108.488 323.894 107.501 324.707 105.423C325.606 103.084 324.7 100.059 324.496 99.4971C324.186 98.6256 323.792 98.6528 323.328 98.6448L318.965 98.7028C318.622 98.7098 318.04 98.8599 318.124 99.5794L318.292 101.02C318.482 102.681 317.906 103.175 315.666 104.494L311.661 106.846C310.761 107.397 307.724 109.231 307.88 113.387L307.728 113.443C305.768 111.025 303.513 110.85 301.339 111.221L297.486 111.904C294.779 112.407 294.135 111.889 293.409 110.822L292.886 109.932L293.864 109.359C294.054 109.251 294.568 108.949 294.157 108.244L290.503 102.009L316.056 87.0461C316.476 86.7987 316.937 86.4028 316.445 85.559L313.807 81.0574C313.561 80.6363 313.166 80.1768 312.321 80.6696L286.772 95.6333L283.311 89.7259C283.091 89.3507 282.751 88.9846 281.985 89.181L277.49 90.4282C277.108 90.5277 276.313 90.6782 276.861 91.6154L287.863 110.399L287.862 110.4ZM225.27 48.1776C225.914 48.4665 226.098 48.1908 226.447 47.811L250.701 19.9575C250.932 19.7035 251.438 19.0981 250.399 18.6325L245.088 16.2653C244.444 15.979 244.284 16.2047 243.73 16.9102L238.111 24.0426L229.577 20.2363L230.979 11.226C231.122 10.0994 230.995 9.9828 230.4 9.7182L224.893 7.2626C224.644 7.1515 224.074 6.9586 223.83 7.504C223.722 7.7524 223.753 7.9443 223.716 8.1675L219.175 44.5092C219.1 45.0712 219.069 45.412 219.564 45.6357L225.27 48.1776ZM268.018 37.6353L261.958 46.124L260.275 44.9247C258.553 43.6927 254.75 40.9786 257.811 36.6895C260.559 32.8428 263.816 34.6354 266.427 36.4982L268.018 37.6353ZM258.643 50.766L253.021 58.6371L251.165 57.3117C247.097 54.4077 248.629 51.6976 249.483 50.5049C252.136 46.79 255.149 48.2726 257.27 49.7879L258.643 50.766ZM254.837 66.942C255.233 67.2268 255.783 67.4864 256.352 66.6901L276.714 38.1705C276.998 37.7716 277.259 37.2222 276.462 36.6552L269.124 31.4153C264.303 27.9736 257.556 24.4238 252.19 31.9415C248.244 37.4682 250.897 41.7001 252.352 43.4033C249.477 42.7545 245.82 43.0135 243.073 46.8607C240.924 49.8677 240.877 52.8368 241.476 54.8C242.476 57.9827 245.683 60.4065 247.851 61.9542L254.837 66.942ZM263.487 75.7797C264.128 76.5174 264.527 76.3149 265.274 76.0953L280.913 71.5396C282.798 70.9746 287.408 69.4799 289.615 68.7053L289.759 68.8689C285.018 72.8585 285.806 72.0274 283.884 73.7053L272.092 83.9911C271.722 84.3123 271.344 84.788 271.989 85.5247L275.416 89.4547C275.737 89.8243 276.213 90.2025 276.948 89.5597L303.357 66.5234C303.725 66.2008 304.105 65.7261 303.46 64.9894L300.034 61.0584C299.498 60.4454 299.143 60.5368 298.514 60.7256L281.427 65.6827C279.58 66.2114 277.699 66.6997 273.94 68.1761L273.797 68.0125C275.301 66.8446 277.338 65.2126 278.443 64.2471L291.462 52.8908C291.833 52.5682 292.21 52.0935 291.568 51.3568L288.139 47.4258C287.498 46.689 286.975 47.0006 286.607 47.3217L260.197 70.3575C259.83 70.6797 259.45 71.1553 260.095 71.89L263.487 75.7797ZM319.364 146.707L318.289 137.642C318.233 137.158 318.055 136.575 317.084 136.69L313.414 137.125C312.929 137.182 312.346 137.361 312.461 138.332L313.537 147.397L304.578 148.457L303.319 137.829C303.226 137.018 302.666 136.921 302.388 136.899L298.215 136.3C297.994 136.27 297.717 136.25 297.521 136.436C297.325 136.623 297.303 136.901 297.327 137.115L299.495 155.407C299.551 155.892 299.729 156.472 300.7 156.358L335.499 152.235C335.988 152.178 336.565 152.001 336.451 151.029L334.384 133.548C334.323 133.062 334.144 132.483 333.175 132.596L329.504 133.031C328.537 133.146 328.496 133.752 328.556 134.24L329.887 145.461L319.364 146.707ZM305.095 180.508L305.837 170.753L336.01 173.058C336.501 173.095 337.1 173.026 337.18 172.055L337.576 166.853L337.582 166.738V166.714V166.643V166.619C337.569 166.191 337.394 165.752 336.572 165.689L301.631 163.025C301.142 162.988 300.539 163.051 300.463 164.027L298.763 186.344C298.726 186.831 298.788 187.435 299.766 187.51L334.706 190.176C335.196 190.213 335.8 190.151 335.873 189.174L336.268 183.971C336.345 183 335.755 182.844 335.267 182.807L305.095 180.508ZM327.542 200.255C327.236 200.336 326.948 200.367 326.831 200.791C326.726 201.151 326.927 201.663 327.096 202.273C327.536 203.918 327.616 205.463 327.207 206.927C326.537 209.337 324.99 210.427 323.727 210.919C320.637 212.091 314.629 210.589 312.324 209.948C305.416 208.023 302.517 206.485 301.329 204.466C300.56 203.177 300.342 201.539 300.838 199.757C301.302 198.081 302.45 196.991 303.93 195.939C304.211 195.732 304.709 195.365 304.812 194.998C304.899 194.687 304.666 194.506 304.448 194.275L302.055 191.521C301.875 191.366 301.71 191.148 301.448 191.073C301.134 190.986 300.642 191.129 299.81 191.689C297.396 193.272 295.724 196.25 295.01 198.81C293.466 204.36 294.449 212.981 310.623 217.486C318.056 219.553 329.363 221.062 332.687 209.132C333.561 205.986 333.503 202.535 332.499 200.28C332.4 200.024 332.15 199.501 331.781 199.401C331.574 199.345 331.351 199.34 330.925 199.446L327.542 200.255ZM304.534 238.547L305.828 235.974C309.291 229.078 307.142 222.712 300.732 219.491C296.022 217.124 292.79 218.115 290.842 219.448C288.46 221.049 286.849 224.007 285.753 226.194L281.75 234.155C281.533 234.591 281.362 235.17 282.233 235.613L313.548 251.342C313.985 251.566 314.57 251.734 315.009 250.862L317.349 246.202C317.787 245.324 317.302 244.963 316.865 244.745L304.534 238.547ZM289.678 231.084L290.753 228.948C291.677 227.103 293.288 224.02 297.754 226.263C302.463 228.629 301.461 231.588 300.047 234.41L299.292 235.912L289.678 231.084ZM287.955 260.916L293.609 253.747C293.911 253.36 294.193 252.824 293.428 252.22L290.525 249.933C290.141 249.629 289.606 249.342 288.999 250.114L283.349 257.278L276.266 251.697L282.891 243.293C283.395 242.652 283.071 242.191 282.891 241.979L280.365 238.603C280.225 238.422 280.047 238.21 279.776 238.204C279.502 238.199 279.293 238.378 279.16 238.547L267.756 253.011C267.454 253.398 267.168 253.933 267.937 254.537L295.458 276.234C295.842 276.539 296.378 276.82 296.984 276.053L307.88 262.231C308.185 261.845 308.468 261.309 307.699 260.705L304.799 258.418C304.03 257.813 303.575 258.212 303.273 258.599L296.277 267.469L287.955 260.916ZM253.52 274.652L260.889 268.223L280.785 291.022C281.106 291.39 281.582 291.77 282.318 291.129L286.249 287.702C286.616 287.379 286.996 286.905 286.354 286.164L263.315 259.757C262.995 259.39 262.521 259.01 261.783 259.657L244.914 274.372C244.547 274.689 244.166 275.169 244.81 275.904L267.848 302.31C268.168 302.678 268.644 303.057 269.379 302.415L273.31 298.983C274.049 298.342 273.737 297.818 273.416 297.451L253.52 274.652ZM234.913 316.281C233.277 317.018 230.147 317.484 227.438 311.49C224.862 305.799 227.11 303.65 228.892 302.846C230.723 302.017 233.766 301.886 236.298 307.486C238.853 313.123 236.645 315.497 234.913 316.281ZM223.214 302.553L223.093 301.893C221.729 294.399 225.395 291.427 227.771 290.35C228.512 290.013 229.223 289.87 229.957 289.776C230.59 289.733 231.098 289.802 231.397 289.664C231.692 289.528 231.755 289.141 231.717 288.923L231.188 284.987C231.128 284.594 231.166 284.282 230.322 284.127C228.895 283.877 226.902 284.482 225.615 285.06C222.052 286.674 217.76 290.106 216.935 296.984C216.33 301.967 217.913 307.573 219.929 312.027C221.071 314.549 223.404 318.925 226.94 321.196C229.883 323.091 233.271 323.463 237.084 321.738C242.382 319.34 246.203 313.554 242.08 304.447C238.408 296.33 232.577 294.916 227.827 297.065C226.837 297.513 224.13 298.915 223.357 302.602L223.214 302.553ZM195.457 325.613L214.284 323.384L214.973 329.214L196.145 331.443L195.457 325.613ZM200.156 312.209C200.356 313.883 200.773 315.098 201.412 315.87C202.059 316.645 202.919 316.961 204.005 316.829C205.14 316.699 205.921 316.077 206.367 314.973C206.803 313.876 206.896 312.288 206.65 310.208C206.447 308.496 206.033 307.232 205.417 306.434C204.803 305.631 203.981 305.294 202.947 305.412C201.775 305.555 200.951 306.191 200.48 307.318C200.013 308.452 199.907 310.09 200.156 312.209ZM192.899 312.371C192.51 309.075 193.183 306.353 194.902 304.179C196.634 302.005 199.01 300.74 202.031 300.378C205.077 300.018 207.712 300.764 209.927 302.609C212.144 304.465 213.431 306.944 213.802 310.071C214.036 312.046 213.845 313.847 213.238 315.477C212.627 317.104 211.655 318.52 210.313 319.726C208.967 320.922 207.133 321.659 204.794 321.939C201.492 322.332 198.779 321.588 196.643 319.722C194.509 317.86 193.261 315.404 192.899 312.371V312.371ZM158.106 298.529L165.715 297.626L183.944 321.279L180.93 295.825L188.321 294.947L192.896 333.574L184.91 334.521L167.028 311.49L169.966 336.298L162.683 337.155L158.106 298.529ZM141.01 285.846C140.75 285.771 140.583 285.56 140.262 285.696C140.01 285.79 139.842 286.195 139.568 286.575C138.799 287.709 137.677 288.3 136.107 287.864C134.536 287.429 133.879 286.344 133.81 284.967C133.784 284.456 133.907 283.809 133.435 283.678C133.279 283.634 133.108 283.647 132.949 283.603L129.445 283.024C129.236 282.961 128.864 283.086 128.719 283.61C128.499 284.394 128.433 285.448 128.949 286.83C129.679 288.668 131.298 290.755 135.014 291.789C138.73 292.823 141.193 291.876 142.767 290.68C143.927 289.758 144.411 288.823 144.631 288.039C144.776 287.515 144.519 287.216 144.312 287.16L141.01 285.846ZM140.748 295.302C139.806 295.04 139.584 295.433 139.08 296.024L128.523 308.427C127.257 309.935 124.231 313.716 122.811 315.579L122.602 315.515C124.367 309.579 124.166 310.706 124.851 308.247L129.044 293.171C129.176 292.705 129.232 292.1 128.289 291.838L123.266 290.437C122.793 290.306 122.19 290.25 121.927 291.191L112.533 324.953C112.402 325.428 112.346 326.031 113.288 326.292L118.313 327.69C119.099 327.906 119.343 327.638 119.763 327.135L131.313 313.599C132.565 312.148 133.868 310.7 136.196 307.4L136.404 307.462C135.792 309.262 134.988 311.749 134.594 313.162L129.962 329.808C129.831 330.273 129.775 330.879 130.718 331.147L135.742 332.54C136.686 332.802 136.95 332.254 137.081 331.788L146.474 298.024C146.605 297.557 146.662 296.946 145.719 296.684L140.748 295.302ZM98.0975 301.6L106.253 305.693C106.691 305.917 107.273 306.085 107.713 305.212L109.371 301.911C109.591 301.475 109.76 300.89 108.888 300.454L100.731 296.355L104.78 288.294L114.345 293.103C115.073 293.464 115.463 293.054 115.633 292.835L118.433 289.683C118.58 289.515 118.75 289.297 118.701 289.029C118.653 288.761 118.435 288.586 118.241 288.493L101.784 280.221C101.346 280.003 100.764 279.834 100.324 280.707L84.5926 312.021C84.373 312.457 84.2018 313.038 85.0753 313.478L100.806 321.384C101.242 321.601 101.824 321.77 102.264 320.899L103.922 317.595C104.361 316.724 103.877 316.357 103.439 316.138L93.3414 311.063L98.0975 301.6ZM62.6682 290.362L81.4049 266.597C81.7068 266.211 81.9916 265.675 81.2241 265.071L77.1264 261.845C76.7432 261.539 76.2064 261.252 75.6005 262.026L53.9069 289.546C53.6034 289.927 53.3201 290.462 54.0876 291.072L69.4472 303.176L64.6709 309.237C64.3689 309.623 64.0841 310.157 64.8516 310.764L68.565 313.691C69.3325 314.294 69.787 313.889 70.089 313.509L77.8263 303.693C78.4322 302.927 78.0298 302.471 77.6455 302.167L75.9388 300.82L94.6729 277.056C94.9769 276.676 95.2617 276.134 94.4921 275.53L90.3965 272.303C90.0122 271.998 89.4765 271.718 88.8705 272.484L70.1364 296.248L62.6682 290.362ZM69.0331 252.594C68.4277 251.821 68.0182 252.008 67.2612 252.189L51.418 255.957C49.5057 256.431 44.8289 257.696 42.5849 258.356L42.4496 258.188C47.3824 254.437 46.5533 255.229 48.5594 253.647L60.8474 243.96C61.2311 243.661 61.6326 243.206 61.0276 242.434L57.799 238.341C57.496 237.955 57.0406 237.556 56.273 238.16L28.7528 259.857C28.3685 260.156 27.9661 260.611 28.571 261.383L31.8002 265.476C32.3046 266.117 32.6621 266.043 33.2984 265.887L50.6136 261.782C52.4819 261.346 54.385 260.953 58.2131 259.664L58.3489 259.839C56.7881 260.929 54.6729 262.461 53.5211 263.364L39.9516 274.066C39.5683 274.365 39.1669 274.82 39.7708 275.586L43.001 279.685C43.6069 280.452 44.1421 280.171 44.5269 279.866L72.0467 258.169C72.4314 257.87 72.8329 257.415 72.2274 256.642L69.0331 252.594ZM43.3761 224.431L45.6393 229.433L18.6629 241.643C18.267 241.824 17.6722 242.091 18.1433 243.131L20.2712 247.828C20.4954 248.327 20.7686 248.801 21.7088 248.37L53.6357 233.925C54.5749 233.501 54.4007 232.983 54.1765 232.486L46.988 216.6C46.5624 215.66 46.0443 215.835 45.5489 216.059L37.7556 219.522C34.4401 221.023 28.4135 223.391 25.1121 224.53C20.0384 226.231 17.2127 226.312 15.2278 222.98L14.7258 222.132C14.4516 221.659 13.9391 221.715 13.5114 222.089L9.61679 225.341C9.13859 225.733 9.39051 226.157 9.57431 226.431L10.0308 227.179C10.51 227.976 11.6815 229.776 13.5054 231.034C17.8848 234.124 22.3597 232.809 27.8358 230.81C29.7344 230.131 35.0657 228.075 38.7013 226.493L43.3761 224.431ZM279.702 173.931C279.719 173.613 279.74 173.295 279.753 172.977L279.722 173.581L279.72 173.58L279.702 173.931ZM279.755 172.968L279.765 172.623L279.751 172.967L279.755 172.968ZM279.766 172.609C279.79 172.03 279.809 171.451 279.823 170.872L276.774 168.918L276.562 169.187C277.076 169.794 277.359 170.55 277.359 171.351C277.359 171.494 277.347 171.638 277.325 171.787L279.766 172.609ZM279.847 169.371C279.864 167.952 279.858 166.533 279.82 165.119L277.578 167.916L279.847 169.371ZM279.726 162.741L279.67 161.753L279.722 162.733L279.726 162.741ZM279.568 160.177C279.533 159.69 279.492 159.205 279.451 158.719L279.475 158.998L274.896 151.834C274.509 151.93 274.101 151.898 273.734 151.736L267.398 158.179C267.66 158.53 267.844 158.927 267.944 159.353L278.926 160.715C279.051 160.311 279.256 159.931 279.529 159.601L279.568 160.177ZM279.295 156.984C279.269 156.724 279.235 156.467 279.207 156.207L279.287 156.971L279.295 156.984ZM279.207 156.205C278.959 153.929 278.644 151.663 278.256 149.413L276.25 150.186C276.232 150.515 276.126 150.828 275.942 151.099L279.207 156.205ZM278.255 149.408L278.199 149.065L278.195 149.068L278.255 149.408ZM278.107 148.577L278.105 148.568V148.572L278.107 148.577ZM278.103 148.559L278.101 148.549V148.551L278.103 148.559ZM278.099 148.54L278.094 148.512L278.099 148.54ZM278.024 148.132C277.909 147.508 277.794 146.885 277.668 146.264L276.016 148.906L278.024 148.132ZM277.286 144.465C277.123 143.722 276.951 142.98 276.772 142.24C276.365 142.48 275.901 142.634 275.406 142.676L274.855 148.338C274.858 148.338 274.861 148.338 274.865 148.339L277.286 144.465ZM276.604 141.534L276.408 140.765L276.602 141.535L276.604 141.534ZM275.139 136.182C274.847 135.218 274.539 134.257 274.223 133.301L274.892 136.193C274.97 136.185 275.045 136.182 275.123 136.182H275.139ZM271.652 126.326L271.651 126.323C271.529 126.026 271.402 125.73 271.279 125.434L271.659 126.357L271.652 126.326ZM270.864 124.456C270.661 123.98 270.453 123.505 270.243 123.032C269.783 122.991 269.338 122.851 268.934 122.62L260.191 132.614C260.325 132.807 260.421 133.026 260.472 133.261L272.251 137.915C272.566 137.322 273.061 136.839 273.662 136.537L270.864 124.456ZM269.954 122.393C269.683 121.795 269.408 121.2 269.127 120.607C269.391 121.167 269.651 121.73 269.908 122.293H269.909L269.922 122.324L269.954 122.393ZM268.511 119.325L268.211 118.71L268.209 118.715L268.511 119.325ZM266.166 114.81C265.15 112.955 264.082 111.128 262.96 109.332C262.85 109.842 262.616 110.316 262.275 110.721L266.166 114.81ZM262.137 108.044C261.844 107.59 261.548 107.138 261.248 106.688C261.547 107.138 261.843 107.587 262.137 108.044ZM260.414 105.445C257.843 101.692 255.034 98.0853 251.994 94.6531L251.987 94.6521L252.316 95.0258L250.137 94.845C250.022 95.2374 249.838 95.6035 249.586 95.9286L258.173 105.812C258.851 105.424 259.658 105.296 260.414 105.445H260.414ZM251.993 94.6516C251.832 94.4699 251.666 94.2926 251.504 94.1123L251.993 94.6516ZM251.074 93.6377C250.638 93.158 250.2 92.6798 249.755 92.2067C250.013 92.6106 250.184 93.0737 250.243 93.569L251.074 93.6377ZM270.666 171.494L265.601 172.712C265.421 172.447 265.171 172.239 264.885 172.102L265.557 163.256C266.056 163.137 266.507 162.909 266.891 162.585L275.693 168.227L275.562 168.386C275.079 168.13 274.549 167.996 274.01 167.996C272.164 167.996 270.659 169.501 270.659 171.351C270.659 171.397 270.663 171.444 270.666 171.494H270.666ZM262.356 174.067L259.864 175.615C259.35 175.123 258.702 174.817 257.995 174.737L255.083 165.52C255.22 165.427 255.351 165.321 255.476 165.207L262.518 172.914C262.387 173.167 262.318 173.44 262.318 173.725C262.319 173.837 262.331 173.951 262.356 174.067V174.067ZM254.375 177.935L247.318 176.983C247.3 176.138 246.947 175.338 246.336 174.743L252.009 166.036C252.641 166.217 253.295 166.217 253.912 166.056L256.694 174.852C255.338 175.263 254.388 176.499 254.375 177.935ZM233.906 168.006C233.956 167.841 233.994 167.666 234.018 167.489L240.145 167.097C240.379 167.663 240.858 168.097 241.45 168.267L242.472 174.229C242.241 174.36 242.027 174.522 241.827 174.715L233.906 168.006ZM222.927 163.049C222.98 162.812 223.008 162.588 223.008 162.368C223.008 161.221 222.42 160.171 221.457 159.559L223.326 154.836C223.448 154.839 223.544 154.827 223.653 154.806L229.225 164.213C228.785 164.459 228.406 164.81 228.119 165.234L222.927 163.049ZM211.611 177.929C211.537 177.848 211.462 177.773 211.387 177.705L218.548 165.519C219.962 166.03 221.597 165.466 222.429 164.226L227.624 166.411C227.571 166.642 227.546 166.851 227.546 167.056C227.546 167.426 227.614 167.797 227.748 168.159L211.611 177.929ZM203.479 185.404C202.268 184.538 200.552 184.644 199.468 185.616L177.572 168.946C177.631 168.825 177.684 168.704 177.727 168.579L189.105 170.071C189.211 171.822 190.672 173.216 192.45 173.216C194.181 173.216 195.618 171.884 195.783 170.19L198.683 169.915C199.091 171.274 200.355 172.233 201.797 172.233C202.261 172.233 202.714 172.129 203.149 171.924L207.236 177.559C206.435 178.175 205.964 179.11 205.964 180.122C205.964 180.91 206.261 181.673 206.787 182.264L203.479 185.404ZM197.568 209.029C197.097 208.789 196.58 208.662 196.054 208.662C195.789 208.661 195.522 208.699 195.25 208.768L190.691 198.028C191.039 197.692 191.245 197.222 191.245 196.729C191.245 195.875 190.644 195.157 189.834 194.978L188.638 186.837C188.98 186.665 189.264 186.4 189.457 186.077L198.362 188.005C198.362 188.021 198.358 188.036 198.358 188.052C198.358 189.746 199.661 191.139 201.352 191.291L202.315 199.349C200.885 199.707 199.845 201.003 199.845 202.492C199.845 203.379 200.205 204.214 200.845 204.824L197.568 209.029ZM191.176 218.115C191.006 218.058 190.83 218.03 190.653 218.03C189.663 218.03 188.853 218.84 188.853 219.834C188.853 220.04 188.89 220.239 188.962 220.435L181.901 225.384C181.611 225.188 181.275 225.079 180.923 225.073L176.955 214.034C177.826 213.508 178.397 212.62 178.509 211.618L183.642 210.702C183.957 211.122 184.448 211.378 184.978 211.378C185.539 211.378 186.056 211.094 186.368 210.636L192.709 211.966C192.709 211.979 192.706 211.994 192.706 212.01C192.706 212.876 193.055 213.708 193.666 214.337L191.176 218.115ZM190.56 233.607C190.535 233.72 190.522 233.834 190.522 233.949C190.522 234.669 190.955 235.311 191.606 235.591L191.282 242.543C191.09 242.608 190.909 242.704 190.746 242.826L185.847 239.824C185.984 239.459 186.056 239.085 186.056 238.708C186.056 236.955 184.661 235.522 182.926 235.457L181.788 228.421C181.857 228.383 181.922 228.34 181.982 228.293L190.56 233.607ZM179.478 248.374C178.453 248.006 177.322 248.199 176.469 248.846L169.565 243.19C169.851 242.677 170 242.098 170 241.499C170 240.79 169.774 240.089 169.358 239.497L175.068 233.697L179.874 237.309C179.658 237.753 179.546 238.223 179.546 238.708C179.546 239.949 180.241 241.057 181.34 241.605L179.478 248.374ZM176.035 261.19C175.971 261.184 175.906 261.181 175.837 261.181C174.042 261.181 172.582 262.642 172.582 264.436C172.582 264.507 172.588 264.579 172.594 264.647L167.23 266.09C166.684 264.984 165.573 264.283 164.322 264.283C162.529 264.283 161.069 265.744 161.069 267.538C161.069 268.282 161.322 268.993 161.785 269.568L158.289 273.743C158.199 273.702 158.108 273.665 158.009 273.636L157.363 259.359C158.777 258.985 159.774 257.711 159.774 256.226C159.774 255.778 159.679 255.338 159.492 254.921L162.895 253.114C163.233 253.475 163.703 253.687 164.204 253.687C165.056 253.687 165.781 253.077 165.96 252.271L175.329 252.448C175.693 253.565 176.631 254.391 177.787 254.622L176.035 261.19ZM154.727 246.508C154.864 246.144 154.932 245.77 154.932 245.393C154.932 245.374 154.932 245.355 154.931 245.336L163.344 243.025C163.721 243.804 164.363 244.405 165.167 244.732L164.055 250.096C163.769 250.12 163.49 250.214 163.244 250.373L154.727 246.508ZM153.33 242.602L156.296 235.69C157.348 235.946 158.274 235.712 159.076 235.139L163.588 239.555C163.192 240.139 162.985 240.805 162.985 241.499C162.985 241.599 162.992 241.699 163.001 241.796L154.645 244.087C154.371 243.468 153.909 242.945 153.33 242.602V242.602ZM145.987 209.995C146.297 209.662 146.468 209.232 146.468 208.777C146.468 208.409 146.356 208.057 146.149 207.761L150.882 198.894C151.382 199.187 151.936 199.343 152.506 199.343C154.298 199.343 155.758 197.881 155.758 196.088C155.758 195.586 155.643 195.103 155.417 194.649L161.437 190.008C162.051 190.749 162.96 191.182 163.935 191.182C164.656 191.182 165.351 190.939 165.919 190.493L169.642 193.726C169.32 194.271 169.151 194.879 169.151 195.502C169.151 196.175 169.348 196.826 169.72 197.399L162.855 203.878C162.61 203.759 162.344 203.696 162.073 203.696C161.081 203.696 160.274 204.503 160.274 205.494C160.274 205.753 160.327 206.001 160.43 206.229L151.391 215.268C150.998 215.105 150.59 215.022 150.181 215.022C149.814 215.022 149.454 215.087 149.108 215.208L145.987 209.995ZM149.334 195.424L140.628 195.358C140.348 193.882 139.104 192.793 137.596 192.724L135.46 178.779C135.874 178.63 136.252 178.397 136.573 178.094L143.583 183.04C143.422 183.432 143.342 183.837 143.342 184.245C143.342 186.04 144.802 187.5 146.595 187.5C146.849 187.5 147.112 187.463 147.388 187.392L150.289 193.72C149.8 194.179 149.468 194.767 149.334 195.424V195.424ZM126.485 188.802C126.731 188.338 126.86 187.821 126.86 187.292C126.86 186.716 126.706 186.154 126.413 185.65L132.714 178.543C133.172 178.811 133.678 178.963 134.198 178.985L136.335 192.932C135.835 193.113 135.385 193.418 135.028 193.817L126.485 188.802ZM134.277 196.657L128.382 199.205C127.774 198.33 126.781 197.798 125.72 197.798C124.257 197.798 122.99 198.776 122.596 200.162L116.487 199.672C116.295 198.065 114.909 196.801 113.261 196.801C112.897 196.801 112.53 196.869 112.168 197L109.845 193.142C110.527 192.521 110.911 191.662 110.911 190.743C110.911 190.727 110.911 190.712 110.911 190.696L120.636 188.587C121.149 189.771 122.308 190.547 123.607 190.547C124.357 190.547 125.078 190.282 125.664 189.802L134.377 194.92C134.256 195.265 134.193 195.618 134.193 195.976C134.193 196.196 134.22 196.418 134.277 196.657V196.657ZM108.799 172.005C110.068 172.36 111.422 171.921 112.243 170.949L119.173 174.855L108.236 176.892C108.01 176.537 107.71 176.244 107.359 176.035L108.799 172.005ZM122.539 174.444L126.03 170.597L123.639 184.034C123.615 184.027 123.593 184.034 123.567 184.034L121.97 176.54C122.426 176.231 122.701 175.721 122.701 175.157C122.701 174.911 122.646 174.668 122.539 174.444V174.444ZM108.579 179.009C108.639 178.785 108.669 178.558 108.669 178.334C108.669 178.263 108.665 178.188 108.659 178.113L119.614 176.072C119.862 176.455 120.263 176.727 120.72 176.811L122.319 184.314C121.692 184.589 121.165 185.049 120.817 185.628L108.579 179.009ZM106.004 181.932L106.166 181.01C106.856 180.963 107.506 180.645 107.969 180.131L120.386 186.846C120.364 186.993 120.354 187.142 120.354 187.292C120.354 187.307 120.354 187.323 120.354 187.339L110.628 189.447C110.114 188.264 108.955 187.488 107.657 187.488C107.516 187.488 107.376 187.5 107.221 187.525L106.215 184.607C106.575 184.29 106.783 183.837 106.783 183.349C106.783 182.766 106.486 182.234 106.004 181.932ZM119.8 162.4C120.41 163.245 121.384 163.758 122.43 163.758C124.066 163.758 125.441 162.517 125.651 160.926L132.979 161.526C133.117 162.887 134.04 164.044 135.336 164.483L134.174 172.487C132.46 172.578 131.094 174.002 131.094 175.737C131.094 176.443 131.328 177.129 131.759 177.693L125.557 184.695C125.354 184.545 125.13 184.414 124.887 184.311L127.384 170.295C128.224 170.136 128.847 169.407 128.847 168.53C128.847 167.536 128.04 166.726 127.048 166.726C126.056 166.726 125.25 167.536 125.25 168.53C125.25 168.812 125.317 169.087 125.446 169.342L121.589 173.582C121.039 173.379 120.431 173.491 119.986 173.843L112.872 169.838C112.987 169.492 113.045 169.14 113.045 168.785C113.045 168.315 112.942 167.853 112.737 167.411L119.8 162.4ZM144.853 162.759C144.964 164.161 145.942 165.34 147.295 165.711L146.086 181.044C145.406 181.149 144.771 181.477 144.284 181.975L137.312 177.048C137.504 176.628 137.601 176.185 137.601 175.737C137.601 174.35 136.726 173.136 135.438 172.677L136.603 164.674C138.095 164.617 139.392 163.606 139.822 162.191L144.853 162.759ZM154.486 170.563C154.05 171.13 153.813 171.818 153.813 172.534C153.813 173.239 154.044 173.921 154.473 174.485L148.259 181.458C147.981 181.293 147.682 181.171 147.366 181.093L148.569 165.813C149.045 165.759 149.5 165.603 149.913 165.353L154.486 170.563ZM160.824 188.865L154.638 193.633C154.046 193.116 153.3 192.833 152.506 192.833C152.126 192.832 151.75 192.905 151.386 193.042L148.543 186.84C149.367 186.226 149.849 185.277 149.849 184.245C149.849 183.555 149.621 182.882 149.205 182.318L155.426 175.338C156.152 175.765 156.98 175.908 157.84 175.686L162.277 185.134C161.298 185.719 160.68 186.781 160.68 187.927C160.68 188.242 160.729 188.557 160.824 188.865V188.865ZM160.307 172.279L171.763 169.015C172.269 169.999 173.233 170.653 174.333 170.763L175.202 176.188C174.547 176.527 174.12 177.207 174.12 177.96C174.12 178.203 174.168 178.443 174.258 178.673L166 185.411C165.419 184.934 164.697 184.672 163.935 184.672C163.792 184.672 163.647 184.685 163.49 184.707L158.997 175.141C159.83 174.524 160.319 173.572 160.319 172.534C160.319 172.447 160.314 172.364 160.307 172.279V172.279ZM187.728 183.034C187.258 183.034 186.804 183.206 186.442 183.514L178.095 178.409C178.13 178.263 178.148 178.113 178.148 177.96C178.148 176.973 177.413 176.141 176.463 175.979L175.607 170.64C176.049 170.504 176.45 170.273 176.799 169.968L198.699 186.635C198.68 186.672 198.662 186.712 198.643 186.756L189.731 184.825C189.619 183.819 188.763 183.035 187.728 183.034V183.034ZM189.508 198.523C189.511 198.523 189.511 198.523 189.514 198.523L194.093 209.315C193.6 209.671 193.218 210.156 192.983 210.714L186.63 209.387C186.565 209.029 186.384 208.705 186.116 208.462L189.508 198.523ZM175.388 208.005L174.71 203.93L178.385 203.285C178.752 203.871 179.462 204.18 180.178 204.027L183.564 208.802C183.437 209.001 183.353 209.225 183.318 209.459L178.397 210.337C178.008 208.998 176.799 208.051 175.388 208.005ZM179.195 226.275L170.522 226.509C170.348 225.726 169.902 225.042 169.259 224.565L174.906 214.48C175.186 214.514 175.504 214.501 175.756 214.465L179.721 225.509C179.482 225.715 179.297 225.979 179.195 226.275V226.275ZM170.34 228.549C170.443 228.309 170.518 228.054 170.559 227.789L179.229 227.554C179.238 227.577 179.247 227.595 179.258 227.618L174.94 232.002L170.34 228.549ZM155.909 221.674L152.632 224.758C152.316 224.608 151.979 224.528 151.643 224.528C151.626 224.528 151.609 224.53 151.592 224.53L151.091 221.397C151.834 221.178 152.466 220.706 152.891 220.057L155.909 221.674ZM168.105 224.014C167.896 223.957 167.689 223.92 167.482 223.908L166.341 215.118C166.826 214.859 167.167 214.389 167.262 213.85L172.449 212.838C172.741 213.361 173.162 213.788 173.669 214.078L168.105 224.014ZM164.708 215.159C164.824 215.212 164.946 215.255 165.072 215.284L166.215 224.076C165.681 224.256 165.197 224.571 164.81 224.992L158.08 221.388L164.708 215.159ZM173.452 204.149L174.134 208.222C172.878 208.699 172.027 209.901 172.029 211.249C172.029 211.372 172.037 211.492 172.051 211.618L167.022 212.596C166.698 212.07 166.123 211.739 165.491 211.739C165.468 211.738 165.444 211.742 165.421 211.742L163.317 206.793C163.588 206.535 163.767 206.201 163.837 205.834L173.452 204.149ZM170.596 198.327C171.179 198.757 171.877 198.996 172.594 199.009L173.242 202.89L164.061 204.497L170.596 198.327ZM178.248 201.775C178.217 201.858 178.188 201.944 178.17 202.026L174.501 202.672L173.857 198.791C174.148 198.682 174.432 198.536 174.691 198.349L178.248 201.775ZM187.676 197.026L180.814 201.052C180.525 200.828 180.172 200.707 179.805 200.707C179.575 200.707 179.344 200.757 179.129 200.853L175.575 197.43C175.962 196.854 176.167 196.191 176.167 195.502C176.167 195.01 176.059 194.53 175.846 194.069L186.526 186.663C186.776 186.849 187.065 186.974 187.374 187.027L188.569 195.163C188.006 195.477 187.645 196.078 187.645 196.729C187.645 196.826 187.654 196.925 187.676 197.026V197.026ZM185.798 185.61L175.117 193.023C174.785 192.689 174.389 192.431 173.952 192.26L176.391 179.956C176.775 179.91 177.129 179.755 177.426 179.502L185.769 184.601C185.736 184.75 185.717 184.9 185.717 185.049C185.717 185.24 185.745 185.426 185.798 185.61V185.61ZM166.807 186.407L175.068 179.661C175.09 179.676 175.111 179.689 175.137 179.705L172.701 192.001C172.688 191.997 172.672 191.997 172.66 191.997C171.863 191.997 171.1 192.268 170.479 192.764L166.76 189.531C167.041 189.039 167.187 188.49 167.187 187.927C167.187 187.394 167.056 186.874 166.807 186.406V186.407ZM161.333 207.136C161.583 207.251 161.863 207.303 162.143 207.294L164.245 212.244C163.895 212.58 163.692 213.05 163.692 213.542C163.692 213.775 163.739 214.006 163.831 214.225L156.89 220.752L153.372 218.866C153.412 218.659 153.432 218.467 153.432 218.277C153.434 217.411 153.09 216.594 152.478 215.988L161.333 207.136ZM159.869 230.187C159.205 229.296 158.179 228.77 157.066 228.77C156.324 228.77 155.604 229.012 155.001 229.455L153.609 228.147C153.859 227.763 153.99 227.33 153.99 226.879C153.99 226.418 153.858 225.982 153.602 225.596L157.098 222.31L164.144 226.082C163.997 226.465 163.924 226.854 163.924 227.247C163.924 227.54 163.965 227.83 164.048 228.122L159.869 230.187ZM151.162 238.662L151.798 229.218C152.093 229.2 152.38 229.122 152.647 228.997L154.126 230.386C153.753 230.959 153.557 231.606 153.557 232.28C153.557 233.451 154.149 234.539 155.122 235.186L152.121 242.172C151.97 242.15 151.824 242.137 151.679 242.137C151.585 242.137 151.49 242.145 151.392 242.154L151.3 241.593C151.795 241.287 152.1 240.752 152.1 240.16C152.1 239.522 151.726 238.939 151.162 238.662V238.662ZM168.448 238.599C167.266 237.79 165.659 237.8 164.484 238.637L159.97 234.224C160.367 233.644 160.574 232.977 160.574 232.28C160.574 231.962 160.529 231.647 160.436 231.33L164.613 229.267C165.245 230.103 166.217 230.595 167.271 230.595C168.157 230.595 168.999 230.237 169.626 229.604L174.037 232.922L168.448 238.599ZM165.285 250.454L166.416 245.006C166.441 245.006 166.467 245.01 166.492 245.01C167.331 245.01 168.122 244.717 168.755 244.181L175.616 249.797C175.363 250.221 175.211 250.687 175.171 251.17L165.764 250.99C165.644 250.781 165.482 250.601 165.285 250.454V250.454ZM180.167 228.511C180.282 228.564 180.403 228.602 180.527 228.627L181.665 235.669C181.288 235.809 180.941 236.018 180.639 236.285L175.968 232.775L180.167 228.511ZM184.919 208.017C184.81 208.019 184.704 208.035 184.601 208.061L181.222 203.282C181.394 203.015 181.484 202.713 181.484 202.392C181.484 202.311 181.477 202.233 181.465 202.155L188.286 198.149L184.919 208.017ZM182.35 148.795C182.886 148.369 183.278 147.782 183.465 147.122H189.102C189.311 148.732 190.669 149.948 192.323 149.948C192.685 149.948 193.043 149.887 193.385 149.766L198.792 157.021C198.559 157.356 198.43 157.754 198.43 158.166C198.43 158.649 198.609 159.11 198.923 159.473L193.628 166.741C193.239 166.592 192.843 166.514 192.451 166.514C192.115 166.514 191.781 166.567 191.457 166.67L182.35 148.795ZM197.291 134.065C197.477 134.229 197.686 134.37 197.908 134.489L192.737 143.467C192.6 143.449 192.463 143.441 192.323 143.441C190.84 143.441 189.566 144.435 189.187 145.844H183.558C183.512 145.492 183.409 145.145 183.25 144.82L197.291 134.065ZM196.225 131.12L183.191 131.688L197.44 122.381C197.612 122.505 197.802 122.597 198.007 122.653L198.515 128.502C197.309 128.853 196.419 129.874 196.225 131.12ZM181.945 130.975C181.857 130.912 181.765 130.856 181.665 130.81L182.424 121.467C183.633 121.326 184.67 120.503 185.091 119.359L196.715 121.15C196.721 121.202 196.73 121.258 196.742 121.312L181.945 130.975ZM179.571 131.204L171.984 128.123C171.97 127.952 171.938 127.782 171.886 127.618L180.229 120.927C180.518 121.123 180.827 121.271 181.151 121.365L180.388 130.706C180.077 130.796 179.793 130.968 179.571 131.204ZM197.089 93.1913C197.658 93.2933 198.201 93.1055 198.595 92.7348L202.408 96.9118C202.174 97.2461 202.047 97.644 202.047 98.056C202.047 98.103 202.051 98.1509 202.053 98.1989L196.045 100.699C195.665 100.263 195.117 100.009 194.531 100.009C193.419 100.009 192.516 100.91 192.516 102.021C192.516 102.052 192.52 102.085 192.52 102.116L190.619 102.722C190.507 102.521 190.373 102.332 190.221 102.16L197.089 93.1913ZM203.009 99.7678L201.356 103.208C200.484 103.25 199.661 103.649 199.079 104.306L196.472 102.554C196.522 102.379 196.546 102.202 196.546 102.021C196.546 101.974 196.543 101.926 196.539 101.878L202.548 99.379C202.679 99.5289 202.838 99.6602 203.009 99.7678H203.009ZM217.443 98.8064L203.932 104.304C203.585 103.913 203.15 103.612 202.667 103.427L204.29 100.056C205.059 99.9672 205.713 99.4406 205.962 98.7114L217.443 98.8064ZM219.502 99.3472C219.685 99.7723 219.953 100.149 220.293 100.458L215.941 107.74C215.527 107.556 215.097 107.464 214.658 107.464C213.204 107.464 211.927 108.459 211.538 109.837L204.629 107.388C204.717 107.089 204.763 106.779 204.763 106.46C204.763 106.108 204.704 105.759 204.585 105.419L219.502 99.3472ZM237.713 110.111C237.489 110.56 237.37 111.05 237.37 111.546C237.37 112.09 237.504 112.617 237.76 113.087L232.798 117.204C232.2 116.711 231.458 116.443 230.677 116.443C229.393 116.443 228.251 117.165 227.684 118.305L227.064 118.133C227.005 117.073 226.126 116.229 225.052 116.229C224.622 116.229 224.211 116.364 223.869 116.616L217.573 112.147C217.795 111.699 217.913 111.21 217.913 110.717C217.913 109.884 217.58 109.078 216.994 108.471L221.389 101.117C222.623 101.563 224.009 101.19 224.874 100.243L237.713 110.111ZM225.647 98.7261L235.611 100.76C235.639 102.203 236.816 103.371 238.264 103.386L238.946 108.77C238.781 108.868 238.628 108.98 238.491 109.098L225.534 99.1401C225.578 99.0083 225.615 98.869 225.647 98.7261V98.7261ZM235.567 93.9028C235.906 94.2936 236.395 94.5193 236.919 94.5193C237.594 94.5193 238.202 94.1426 238.507 93.5559L243.768 94.1941C243.805 94.6425 243.933 95.0773 244.144 95.4742L240.13 98.7705C239.631 98.2928 238.978 98.0252 238.289 98.0252C237.271 98.0247 236.342 98.614 235.897 99.5153L225.899 97.4738L235.567 93.9028ZM267.987 160.646L278.808 161.989C278.867 162.555 279.082 163.101 279.424 163.567L276.497 167.224L267.685 161.576C267.832 161.288 267.935 160.973 267.987 160.646V160.646ZM266.455 157.317C266.044 157.069 265.589 156.917 265.112 156.871L263.402 149.062C264.022 148.847 264.555 148.451 264.945 147.919L272.659 150.222C272.675 150.437 272.728 150.646 272.818 150.842L266.455 157.317ZM244.017 166.401L249.991 164.612C250.225 164.946 250.514 165.241 250.847 165.478L245.269 174.045C244.883 173.884 244.481 173.802 244.067 173.802C243.948 173.802 243.83 173.812 243.702 173.828L242.74 168.211C243.478 167.922 243.991 167.211 244.017 166.401V166.401ZM237.23 157.763C237.239 157.75 237.249 157.736 237.26 157.724L249.362 161.911C249.33 162.105 249.311 162.3 249.311 162.491C249.312 162.814 249.355 163.133 249.44 163.443L243.643 165.179C243.269 164.645 242.662 164.324 242.004 164.324C241.812 164.324 241.622 164.353 241.437 164.409L237.23 157.763ZM235.455 158.496C235.689 158.529 235.925 158.508 236.15 158.451L240.385 165.143C240.239 165.344 240.133 165.573 240.068 165.821L233.934 166.217C233.744 165.502 233.315 164.875 232.714 164.437L235.455 158.496ZM224.787 154.105L233.661 156.597C233.686 157.116 233.917 157.606 234.293 157.961L231.555 163.901C231.294 163.834 231.048 163.803 230.801 163.803C230.693 163.803 230.587 163.811 230.48 163.823L224.753 154.151C224.765 154.136 224.778 154.12 224.787 154.105V154.105ZM224.438 151.607C224.267 151.479 224.074 151.381 223.871 151.32L223.616 147.718L227.68 148.012C227.736 148.473 227.889 148.915 228.129 149.316L224.438 151.607ZM215.106 147.668C215.194 147.49 215.262 147.307 215.316 147.115L222.33 147.624L222.595 151.409C222.454 151.474 222.324 151.558 222.201 151.657L215.106 147.668ZM220.271 159.086C219.772 158.983 219.343 159 218.86 159.128L214.103 148.864C214.179 148.81 214.254 148.752 214.321 148.693L221.573 152.771C221.557 152.862 221.548 152.949 221.548 153.036C221.548 153.547 221.763 154.026 222.136 154.363L220.271 159.086ZM205.053 168.977C205.053 168.899 205.046 168.825 205.04 168.75L216.842 164.153C217.01 164.419 217.216 164.661 217.446 164.868L210.286 177.051C209.937 176.93 209.581 176.867 209.22 176.867C208.95 176.867 208.678 176.908 208.398 176.986L204.18 171.177C204.738 170.572 205.053 169.787 205.053 168.977ZM200.022 160.129C200.05 160.135 200.081 160.141 200.109 160.146L200.764 165.897C199.549 166.304 198.692 167.377 198.561 168.644L195.658 168.918C195.488 168.345 195.164 167.829 194.718 167.417L200.022 160.129ZM195.528 147.195L209.273 147.691C209.344 147.83 209.429 147.965 209.525 148.101L201.512 156.466C201.193 156.263 200.822 156.153 200.443 156.153C200.231 156.153 200.022 156.188 199.817 156.259L194.491 149.11C195.048 148.61 195.412 147.936 195.528 147.195V147.195ZM199.169 134.859C199.842 134.937 200.499 134.764 201.075 134.42L209.616 144.26C209.174 144.831 208.93 145.525 208.93 146.247C208.93 146.299 208.932 146.35 208.937 146.402L195.472 145.913C195.264 145.058 194.721 144.333 193.968 143.89L199.169 134.859ZM212.491 113.133C213.151 113.726 214.042 114.04 214.917 113.958L219.894 131.584L200.284 121.154L212.491 113.133ZM244.631 132.059C244.478 132.444 244.396 132.839 244.396 133.238C244.396 133.269 244.4 133.302 244.403 133.334L238.632 134.667C238.115 133.499 236.959 132.735 235.67 132.735C234.624 132.735 233.645 133.248 233.038 134.099L232.534 133.724C232.577 133.567 232.602 133.403 232.602 133.238C232.602 132.246 231.792 131.44 230.802 131.44C229.992 131.44 229.294 131.983 229.079 132.741L225.544 133.039C225.392 132.596 225.143 132.191 224.809 131.849L229.87 123.031C231.035 123.338 232.175 122.984 232.988 122.2L244.631 132.059ZM238.582 114.07C239.027 114.43 239.57 114.663 240.148 114.749L245.951 130.477C245.724 130.617 245.518 130.783 245.332 130.975L233.726 121.148C233.926 120.709 234.029 120.254 234.029 119.793C234.029 119.228 233.885 118.678 233.617 118.186L238.582 114.07ZM256.572 108.138C256.541 108.313 256.526 108.478 256.526 108.637C256.526 108.691 256.528 108.744 256.531 108.798L243.699 110.494C243.253 109.182 242.029 108.291 240.624 108.291C240.481 108.291 240.335 108.303 240.18 108.328L239.516 103.084C239.899 102.884 240.232 102.589 240.484 102.228L256.572 108.138ZM257.015 106.943L240.946 101.04C240.962 100.927 240.971 100.816 240.971 100.705C240.971 100.416 240.921 100.131 240.827 99.8536L244.958 96.4634C245.963 97.2961 247.474 97.4268 248.62 96.7689L257.211 106.654C257.142 106.745 257.076 106.841 257.015 106.943ZM257.681 111.12L252.059 121.329C251.89 121.353 251.726 121.4 251.573 121.469L243.335 113.326C243.65 112.853 243.833 112.32 243.87 111.761L256.856 110.044C257.054 110.459 257.335 110.825 257.681 111.12V111.12ZM273 150.073H272.999H273ZM265.546 145.536L272.825 141.719C273.195 142.099 273.64 142.376 274.133 142.533L273.551 148.537C273.351 148.655 273.173 148.812 273.033 148.999L265.486 146.747C265.551 146.497 265.583 146.249 265.583 146.001C265.583 145.853 265.574 145.698 265.546 145.536ZM262.328 142.743C262.173 142.743 262.014 142.758 261.842 142.787L259.69 135.168C259.927 135.015 260.129 134.805 260.273 134.556L271.887 139.141C271.874 139.238 271.868 139.337 271.868 139.436C271.868 139.849 271.952 140.255 272.114 140.647L265.109 144.323C264.527 143.353 263.471 142.743 262.328 142.743V142.743ZM250.241 147.495L259.091 146.327C259.248 147.88 260.506 149.113 262.132 149.235L263.832 156.998C263.125 157.219 262.508 157.685 262.094 158.306L249.935 149.305C250.153 148.861 250.268 148.377 250.268 147.887C250.268 147.757 250.259 147.628 250.241 147.495V147.495ZM249.034 145.35L258.369 135.41C258.391 135.415 258.413 135.42 258.435 135.423L260.64 143.23C259.967 143.639 259.469 144.273 259.235 145.019L249.82 146.26C249.617 145.91 249.349 145.603 249.034 145.35V145.35ZM228.994 150.281C229.843 150.918 230.954 151.122 231.962 150.817L234.219 155.112C234.143 155.192 234.075 155.277 234.012 155.368L225.139 152.875C225.133 152.815 225.124 152.754 225.114 152.695L228.994 150.281ZM223.628 137.128L228.714 145.186C228.26 145.611 227.936 146.146 227.777 146.739L223.528 146.428L222.89 137.318C223.143 137.286 223.389 137.221 223.628 137.128ZM244.185 146.282C244.064 146.493 243.967 146.717 243.898 146.949L234.268 146.967C234.102 146.128 233.617 145.38 232.919 144.887L235.349 139.223C236.221 139.33 237.137 139.02 237.809 138.425L244.185 146.282ZM257.273 134.706L247.839 144.756C247.767 144.736 247.692 144.72 247.614 144.706L248.103 136.453C249.386 136.275 250.433 135.365 250.779 134.123L257.214 134.621C257.232 134.649 257.254 134.678 257.273 134.706ZM252.106 124.889C253.108 125.032 253.972 124.291 254.099 123.349L258.281 122.609L258.124 131.959C257.531 132.169 257.092 132.677 256.968 133.319L250.875 132.847C250.751 131.808 250.137 130.895 249.224 130.392L252.106 124.889ZM258.304 121.307L253.806 122.103C253.685 121.918 253.529 121.758 253.352 121.633L258.456 112.366L258.304 121.307ZM259.587 121.08L259.746 111.89C259.755 111.89 259.768 111.89 259.781 111.89C260.298 111.89 260.811 111.764 261.275 111.52L267.673 118.249C267.426 118.702 267.292 119.204 267.284 119.721L259.587 121.08ZM267.518 120.976C267.629 121.267 267.782 121.539 267.969 121.782L259.406 131.565L259.566 122.381L267.518 120.976ZM250.975 124.295L247.989 130.005C247.714 129.975 247.446 129.98 247.15 130.03L241.482 114.67C241.821 114.576 242.142 114.428 242.435 114.232L250.673 122.379C250.57 122.608 250.517 122.853 250.517 123.105C250.517 123.545 250.682 123.965 250.975 124.295V124.295ZM238.924 135.912L244.699 134.576C245.104 135.468 245.882 136.128 246.826 136.376L246.335 144.721C245.86 144.82 245.422 145.019 245.041 145.309L238.603 137.376C238.818 136.929 238.928 136.464 238.928 135.988C238.928 135.963 238.925 135.936 238.925 135.912H238.924ZM230.801 135.037C231.145 135.037 231.477 134.938 231.768 134.75L232.502 135.296C232.446 135.533 232.418 135.763 232.418 135.988C232.418 137.193 233.075 138.281 234.119 138.844L231.751 144.361C231.066 144.192 230.425 144.249 229.792 144.502L224.709 136.443C225.307 135.878 225.666 135.121 225.718 134.308L229.185 134.016C229.481 134.637 230.1 135.037 230.801 135.037V135.037ZM214.705 144.189L220.737 136.835C221.013 137.011 221.298 137.143 221.601 137.228L222.239 146.336L215.405 145.84C215.331 145.23 215.088 144.659 214.705 144.189V144.189ZM199.789 128.391L199.277 122.54C199.421 122.47 199.555 122.383 199.676 122.278L219.495 132.82C219.479 132.856 219.464 132.892 219.451 132.928L202.664 131.294C202.511 129.782 201.299 128.56 199.789 128.391V128.391ZM202.542 132.567L219.222 134.19C219.239 134.822 219.442 135.423 219.813 135.947L213.715 143.376C212.749 142.859 211.538 142.872 210.577 143.421L202.025 133.567C202.255 133.263 202.43 132.925 202.542 132.567V132.567ZM202.445 157.949C202.426 157.784 202.387 157.621 202.324 157.462L210.447 148.984C211.185 149.459 212.048 149.63 212.942 149.401L217.704 159.666C217.218 160.018 216.838 160.493 216.599 161.045L202.445 157.949ZM216.375 162.963L204.697 167.517C204.184 166.498 203.165 165.815 202.031 165.73L201.374 159.945C201.704 159.772 201.978 159.513 202.172 159.198L216.312 162.289C216.312 162.316 216.309 162.342 216.309 162.368C216.31 162.556 216.331 162.752 216.375 162.963H216.375ZM236.869 154.879C236.523 154.623 236.105 154.487 235.669 154.487C235.564 154.487 235.458 154.496 235.349 154.514L233.091 150.222C233.708 149.727 234.124 149.03 234.271 148.245L243.777 148.227C243.833 148.738 244.011 149.225 244.301 149.665L236.869 154.879ZM237.598 155.927L245.216 150.584C245.986 151.108 246.908 151.286 247.836 151.03L251.084 159.349C250.539 159.681 250.087 160.15 249.779 160.704L237.685 156.518C237.685 156.511 237.685 156.504 237.685 156.498C237.685 156.303 237.654 156.112 237.598 155.927ZM228.708 122.486L223.757 131.12C223.572 131.041 223.382 130.98 223.19 130.936L225.307 120.239C225.883 120.166 226.395 119.849 226.718 119.365L227.341 119.536C227.334 119.62 227.329 119.706 227.329 119.793C227.329 120.856 227.852 121.859 228.708 122.486V122.486ZM224.055 119.986L221.89 130.909C221.61 130.959 221.345 131.041 221.099 131.155L216.144 113.606C216.377 113.486 216.595 113.338 216.795 113.163L223.127 117.66C223.067 117.852 223.037 118.046 223.037 118.242C223.037 118.976 223.429 119.633 224.055 119.986V119.986ZM201.508 109.713C202.48 109.713 203.398 109.274 204.016 108.525L211.448 111.161C211.491 111.49 211.587 111.809 211.728 112.103L199.938 119.853C199.665 119.489 199.259 119.239 198.811 119.159L195.892 103.705L198.43 105.41C198.315 105.749 198.253 106.102 198.253 106.46C198.253 108.253 199.714 109.713 201.508 109.713V109.713ZM184.212 115.827L187.52 107.539C187.605 107.548 187.689 107.553 187.775 107.553C189.569 107.553 191.03 106.093 191.03 104.298C191.03 104.178 191.021 104.058 191.009 103.938L192.99 103.308C193.394 103.798 193.989 104.061 194.649 104.031L197.559 119.394C197.347 119.524 197.167 119.697 197.023 119.904L185.297 118.096C185.256 117.222 184.87 116.414 184.212 115.827V115.827ZM184.953 118.242H184.954H184.953ZM252.994 158.812C252.753 158.812 252.514 158.836 252.274 158.884L248.987 150.468C249.047 150.423 249.106 150.375 249.162 150.323L261.596 159.529C261.555 159.73 261.537 159.917 261.537 160.104C261.537 161.711 262.711 163.055 264.271 163.306L263.608 172.005C263.559 172.02 263.508 172.037 263.462 172.055L256.267 164.177C256.535 163.655 256.678 163.077 256.678 162.491C256.678 160.462 255.024 158.812 252.994 158.812V158.812ZM234.003 84.7849C234.926 84.7849 235.669 84.0376 235.669 83.1151C235.669 82.195 234.926 81.4492 234.003 81.4492C233.081 81.4472 232.334 82.195 232.334 83.1151C232.334 84.0376 233.081 84.7849 234.003 84.7849Z" fill="white"/>
</svg>
