<?xml version="1.0" encoding="UTF-8" standalone="no"?>
<svg
   xmlns:dc="http://purl.org/dc/elements/1.1/"
   xmlns:cc="http://creativecommons.org/ns#"
   xmlns:rdf="http://www.w3.org/1999/02/22-rdf-syntax-ns#"
   xmlns:svg="http://www.w3.org/2000/svg"
   xmlns="http://www.w3.org/2000/svg"
   xmlns:sodipodi="http://sodipodi.sourceforge.net/DTD/sodipodi-0.dtd"
   xmlns:inkscape="http://www.inkscape.org/namespaces/inkscape"
   version="1.1"
   width="841.88977"
   height="595.27557"
   id="svg4"
   viewBox="0 0 841.88977 595.27557"
   sodipodi:docname="логотип.cdr">
  <metadata
     id="metadata10">
    <rdf:RDF>
      <cc:Work
         rdf:about="">
        <dc:format>image/svg+xml</dc:format>
        <dc:type
           rdf:resource="http://purl.org/dc/dcmitype/StillImage" />
      </cc:Work>
    </rdf:RDF>
  </metadata>
  <defs
     id="defs8" />
  <sodipodi:namedview
     pagecolor="#ffffff"
     bordercolor="#666666"
     borderopacity="1"
     objecttolerance="10"
     gridtolerance="10"
     guidetolerance="10"
     inkscape:pageopacity="0"
     inkscape:pageshadow="2"
     inkscape:window-width="640"
     inkscape:window-height="480"
     id="namedview6" />
  <path
     d="m 453.7383,380.1611 c -1.6037,0 -2.9055,1.3018 -2.9055,2.909 0,1.6012 1.3018,2.9086 2.9055,2.9086 1.6103,0 2.912,-1.3074 2.912,-2.9086 0,-1.6072 -1.3017,-2.909 -2.912,-2.909 v 0 l 2.396,-6.0301 h -10e-4 c -0.8039,5e-4 -1.4538,0.6479 -1.4538,1.4518 0,0.8028 0.6509,1.4572 1.4538,1.4572 0.8044,0 1.4557,-0.6544 1.4557,-1.4572 0,-0.8039 -0.6503,-1.4513 -1.4547,-1.4518 h -10e-4 10e-4 z m -51.0827,-109.8678 54.6991,-77.7804 c 3.0302,1.0513 6.0392,2.2329 9.02,3.5665 v 0.002 c 13.3579,5.9821 24.9465,14.2754 34.5026,24.2058 -0.5297,-0.3742 -1.1735,-0.5959 -1.8642,-0.5959 -1.423,0 -2.651,0.9054 -3.0838,2.2369 l -5.2691,-0.6402 c -0.1934,-0.7963 -0.8978,-1.3659 -1.7411,-1.3659 -0.9882,0 -1.791,0.7973 -1.8011,1.7819 l -9.8824,3.6518 c -0.5888,-0.9659 -1.6229,-1.5527 -2.7595,-1.5527 -1.6073,0 -2.956,1.1801 -3.2019,2.7414 l -13.3029,-0.1131 c -0.2651,-0.819 -1.0281,-1.3886 -1.9097,-1.3886 -0.2111,0 -0.4201,0.0343 -0.6226,0.103 l -4.2699,-4.6769 c 0,-0.0171 0.002,-0.0333 0.002,-0.0494 0,-0.9928 -0.8089,-1.7992 -1.8001,-1.7992 -0.9937,0 -1.8027,0.8064 -1.8027,1.7992 0,0.4105 0.1465,0.8079 0.404,1.1255 l -6.7704,8.8371 c -0.4458,-0.2222 -0.9351,-0.3368 -1.427,-0.3368 l -1.4285,0.3338 c -0.6741,0.3337 -1.2255,0.8998 -1.5395,1.6153 l -2.9171,-0.5741 -0.7332,1.1578 3.3665,0.664 c 0,0.0187 -0.003,0.0369 -0.003,0.0561 0,1.2321 0.6817,2.3313 1.7628,2.8858 l -3.1867,7.9857 c -0.3419,-0.1201 -0.6943,-0.1807 -1.0498,-0.1807 h -0.0151 c -0.1899,0 -0.3833,0.0207 -0.5949,0.0656 l -3.5119,-6.0149 -0.7438,1.2573 3.063,5.2494 c -0.7352,0.4893 -1.2331,1.2523 -1.3896,2.1259 l -6.5219,0.1247 -0.8367,1.2942 7.3869,-0.1399 c 0.0838,0.3762 0.2368,0.7352 0.4454,1.0589 l -8.1474,6.5355 c -0.4267,-0.3736 -0.971,-0.5822 -1.5345,-0.5822 -0.0768,0 -0.1525,0.005 -0.2323,0.0127 l -0.8963,-2.2784 -0.8534,1.3205 0.5646,1.4325 c -0.5797,0.4413 -0.9286,1.1291 -0.9286,1.8597 0.002,0.9438 0.5559,1.7704 1.4052,2.14 l -0.6549,4.74 c -0.0323,-0.003 -0.0651,-0.003 -0.0974,-0.003 -1.7285,0 -3.1479,1.3558 -3.2494,3.06 l -4.8692,0.3439 c -0.1106,-0.2676 -0.2787,-0.5065 -0.4913,-0.7024 l -4.0209,2.2465 0.0222,0.001 c 1.019,0.0526 1.3492,1.2392 2.6363,1.2392 0.9266,0 1.7158,-0.6302 1.9405,-1.5068 l 4.9698,-0.3534 c 0.4529,1.2972 1.6744,2.1778 3.062,2.1778 1.7946,0 3.2539,-1.4583 3.2539,-3.2529 0,-1.2719 -0.7559,-2.4247 -1.9087,-2.9509 l 0.6715,-4.8576 c 0.7443,-0.106 1.3972,-0.5681 1.7477,-1.2376 l 7.3737,2.9933 c -0.002,0.0116 -0.002,0.0263 -0.002,0.0404 0,0.9917 0.8089,1.7986 1.8002,1.7986 0.7882,0 1.4663,-0.5049 1.7031,-1.2336 l 13.6887,-0.5948 c 0.0535,0.2252 0.1313,0.4423 0.2343,0.6494 l -14.0441,10.7549 c -0.5913,-0.5252 -1.3427,-0.81 -2.1365,-0.81 -1.7946,0 -3.2554,1.4588 -3.2554,3.2544 5e-4,1.7931 1.4608,3.2524 3.2554,3.2524 0.2954,0 0.5888,-0.0429 0.8751,-0.1252 l 9.1194,17.8994 c -0.4863,0.3984 -0.8504,0.9281 -1.0493,1.5295 l -11.3816,-1.4916 c -0.111,-1.6936 -1.5264,-3.0342 -3.2448,-3.0342 -1.7946,0 -3.2539,1.4593 -3.2539,3.2549 0,0.0838 0.005,0.1716 0.0127,0.2555 l -11.4563,3.264 c -0.5545,-1.0867 -1.6573,-1.7719 -2.8903,-1.7719 -0.5681,0 -1.1231,0.1525 -1.6194,0.4393 l -4.585,-5.2247 c 0.2505,-0.3338 0.4358,-0.7024 0.5479,-1.0942 l 8.0439,-0.6211 c 0.2741,1.5825 1.6552,2.7767 3.2846,2.7767 1.8472,0 3.3479,-1.5007 3.3479,-3.3478 0,-1.8451 -1.5007,-3.3463 -3.3479,-3.3463 -1.5734,0 -2.9266,1.1129 -3.2549,2.6338 l -7.9696,0.614 c -0.1898,-1.6663 -1.6097,-2.9656 -3.3225,-2.9656 -1.4644,0 -2.7611,0.969 -3.1928,2.346 l -5.0313,-0.5706 c -0.1293,-1.8178 -1.6492,-3.2579 -3.5019,-3.2579 -1.5956,0 -2.9686,1.071 -3.3791,2.5899 l -7.5232,-0.6145 c -0.3878,-1.3967 -1.6653,-2.3849 -3.1332,-2.3849 -1.7941,0 -3.2529,1.4588 -3.2529,3.2519 0,0.2297 0.0278,0.459 0.0884,0.7104 l -7.2678,5.1541 c -0.6231,-0.5964 -1.4457,-0.9317 -2.301,-0.9317 -1.8471,0 -3.3478,1.5007 -3.3478,3.3478 0,1.0367 0.4812,2.0062 1.3017,2.6445 l -1.5169,4.2299 c -0.0459,-0.004 -0.0949,-0.006 -0.1449,-0.006 -1.477,-0.001 -2.6792,1.2012 -2.6792,2.6812 0,1.0715 0.6317,2.0178 1.6001,2.4445 l -0.1646,0.9377 c -0.7584,0.1656 -1.3189,0.8382 -1.3189,1.632 0,0.8968 0.7004,1.6325 1.582,1.6825 l 1.0069,2.9145 c -0.9882,0.5797 -1.6108,1.6482 -1.6108,2.7975 0,1.7935 1.4593,3.2549 3.2529,3.2549 0.3706,0 0.7367,-0.0652 1.0927,-0.1965 l 2.3238,3.8624 c -0.6726,0.61 -1.067,1.485 -1.067,2.3919 0,1.7941 1.4593,3.2549 3.2549,3.2549 1.4644,0 2.7323,-0.9781 3.1246,-2.3641 l 6.1079,0.4893 c 0.1878,1.635 1.5497,2.8772 3.2266,2.8772 1.7956,0 3.2549,-1.4634 3.2549,-3.261 0,-0.2151 -0.0262,-0.4358 -0.0823,-0.6751 l 5.8938,-2.5485 c 0.6064,0.872 1.5992,1.4022 2.6616,1.4022 1.5492,0 2.862,-1.0932 3.1716,-2.5914 l 8.7043,0.0652 c 0.0924,0.4767 0.2883,0.9251 0.5786,1.3144 l -4.8141,9.0078 c -1.1412,-0.2778 -2.2178,0.6165 -2.2178,1.7501 0,0.9907 0.8064,1.7971 1.7992,1.7971 0.0585,0 0.1166,-0.006 0.1696,-0.009 l 3.1691,5.298 c -0.6817,0.613 -1.0806,1.4946 -1.0806,2.4141 0,1.6502 1.2704,3.0434 2.8853,3.2266 l 0.5483,3.4196 c -0.6635,0.4327 -1.0649,1.1588 -1.0649,1.9561 0,0.8751 0.4792,1.6598 1.2407,2.0688 l -0.6519,9.6264 c -0.6782,0.2277 -1.1458,0.8574 -1.1458,1.586 0,0.7882 0.5515,1.4548 1.2978,1.629 l 0.1201,0.7316 c -1.0604,0.5575 -1.7324,1.6598 -1.7324,2.8722 0,1.7936 1.4593,3.2544 3.2539,3.2544 0.9033,0 1.7531,-0.3767 2.3712,-1.0402 l 8.418,3.8215 c -0.0404,0.1499 -0.0606,0.3019 -0.0606,0.4544 0,0.0167 0,0.0318 0,0.0475 l -3.6589,1.937 c -0.6019,-0.5732 -1.3992,-0.8968 -2.2283,-0.8968 -1.7936,0 -3.2529,1.4603 -3.2529,3.2549 0,1.6471 1.2139,3.0024 2.8207,3.214 l 0.6448,14.2274 c -0.7786,0.2868 -1.3194,1.0407 -1.3194,1.8941 0,1.1058 0.9013,2.0092 2.0117,2.0092 1.1104,0 2.0127,-0.9034 2.0127,-2.0092 0,-0.3272 -0.0788,-0.6443 -0.2282,-0.9311 l 3.5543,-4.2391 c 0.4762,0.2611 1.0104,0.4014 1.5583,0.4014 1.7946,0 3.2539,-1.4603 3.2539,-3.2549 0,-0.0712 -0.004,-0.1429 -0.01,-0.2115 l 5.361,-1.4457 c 0.5479,1.1094 1.6573,1.8102 2.9095,1.8102 1.7936,0 3.2544,-1.4613 3.2544,-3.2549 0,-1.2548 -0.7069,-2.3667 -1.8218,-2.912 l 1.8435,-6.9183 c 1.474,-0.3237 2.5571,-1.6441 2.5571,-3.164 0,-0.9094 -0.3827,-1.7628 -1.0553,-2.3798 l 1.9556,-7.1102 c 0.9438,0.0686 1.9375,-0.3121 2.6066,-1.0372 l 4.9025,2.9989 c -0.0217,0.1121 -0.0343,0.2212 -0.0343,0.3338 0,0.9932 0.8099,1.8031 1.8012,1.8031 0.9897,0 1.8001,-0.8099 1.8001,-1.8031 0,-0.7201 -0.4358,-1.3619 -1.0872,-1.6421 l 0.3237,-6.9486 c 0.7327,-0.2399 1.2397,-0.9185 1.2397,-1.7073 0,-0.9932 -0.81,-1.8026 -1.8002,-1.8026 -0.3959,0 -0.7756,0.1302 -1.0902,0.3736 l -8.5806,-5.3105 c 0.0243,-0.1121 0.0369,-0.2273 0.0369,-0.3429 0,-0.1489 -0.0187,-0.2959 -0.0561,-0.4393 l 7.1643,-5.0207 c 0.2646,0.1469 0.5569,0.2242 0.8559,0.2242 0.9912,0 1.8001,-0.8064 1.8001,-1.7971 0,-0.3297 -0.0894,-0.6474 -0.2641,-0.9286 l 2.5263,-3.8397 c 0.4292,0.1929 0.8776,0.2929 1.3386,0.2929 1.8471,-5e-4 3.3518,-1.5017 3.3518,-3.3483 0,-0.8155 -0.2928,-1.586 -0.8291,-2.196 l 3.3514,-4.2946 c 0.3772,0.1489 0.7695,0.2267 1.1714,0.2267 1.7941,0 3.2549,-1.4608 3.2549,-3.2544 0,-1.6042 -1.1896,-2.959 -2.759,-3.2024 l -0.9695,-8.1504 c 1.3149,-0.4302 2.243,-1.6789 2.243,-3.0872 0,-0.607 -0.1742,-1.1988 -0.508,-1.7224 l 3.4609,-3.2827 c 0.4484,0.2177 0.9185,0.3298 1.3977,0.3298 1.7946,0 3.2549,-1.4599 3.2549,-3.2544 0,-0.3772 -0.0681,-0.7479 -0.1989,-1.1059 l 16.1366,-9.7642 c 0.6166,0.6726 1.4705,1.0559 2.389,1.0559 0.9664,0 1.8693,-0.4267 2.4823,-1.1554 l 7.8126,6.6154 c -0.1874,0.4176 -0.2843,0.8498 -0.2843,1.2891 0,1.7936 1.4613,3.2549 3.2549,3.2549 1.3553,0 2.5348,-0.822 3.0176,-2.0713 l 7.5757,1.019 c 0.5105,1.177 1.6785,1.9552 2.9706,1.9552 1.7946,0 3.2554,-1.4598 3.2554,-3.2544 0,-0.4449 -0.0964,-0.8817 -0.2863,-1.3018 l 2.4293,-1.5073 c 0.3111,0.2394 0.6878,0.3707 1.0902,0.3707 0.9034,0 1.6502,-0.6666 1.7784,-1.5634 l 5.0763,-1.224 c 0.5388,1.1862 1.7224,1.9648 3.0368,1.9648 1.2053,0 2.3147,-0.6574 2.9029,-1.7007 l 2.7883,0.9382 c -0.6968,13.2151 -3.7871,26.528 -9.5152,39.3315 -24.9556,55.7712 -90.4006,80.7626 -146.1777,55.802 -47.5208,-21.2544 -72.7456,-71.572 -63.7282,-120.594 l 1.735,-7.1814 88.6398,-0.001 z m 8.6882,-3.4039 c 1.1134,-1.328 0.6953,-0.9543 0,0 z m 20.1485,-105.5929 15.9599,28.5675 -49.9804,71.2791 -86.9876,-0.0646 -15.8513,-28.3625 h 86.9603 z m -170.7446,62.7364 0.1338,46.225 c 1.3988,0.5994 2.3854,1.9905 2.3905,3.6018 0.005,1.575 -0.9266,2.9393 -2.2683,3.57 l 1.9502,-0.008 3.7477,41.4053 -14.3941,0.05 3.4529,-41.4301 1.946,-0.006 c -3.0105,-1.3896 -4.1279,-5.0727 -0.6726,-7.5924 l 0.0217,-45.4348 v 0 l 66.6639,-95.2935 h 119.7402 l -66.5044,95.2935 z m 220.0786,-69.7774 6.5502,2.9206 -5.9897,7.5616 c -2.4162,3.0267 -3.3847,4.795 -4.033,6.1144 l -0.1465,-0.0671 c 1.1276,-3.6018 1.5325,-5.4424 1.8497,-7.087 z m 59.0361,85.144 0.6272,1.2376 -0.3535,0.258 c -0.4544,0.3353 -0.411,0.7812 -0.2646,1.1907 0.3641,1.0235 1.3795,2.7363 2.8313,3.8937 2.2015,1.8092 4.3632,1.5567 6.5875,1.1664 l 4.6213,-0.7837 c 3.3236,-0.5509 4.5168,0.5232 5.3919,2.9797 l 0.6206,1.7401 -13.0479,4.6551 c -0.9721,0.3474 -0.8408,0.8771 -0.6575,1.3896 l 1.7507,4.9122 c 0.1843,0.5115 0.4176,1.0053 1.3896,0.6579 l 33.006,-11.7764 c 0.9731,-0.3474 0.8418,-0.8761 0.6564,-1.3886 l -1.7501,-4.9122 c -0.1818,-0.5125 -0.4186,-1.0058 -1.3881,-0.6589 l -14.431,5.1505 -0.7857,-2.2021 c -1.1336,-3.1726 0.6141,-4.2567 2.0405,-5.1111 l 5.704,-3.42 c 1.5244,-0.8903 3.4826,-1.8769 4.2956,-3.9553 0.8993,-2.3389 -0.007,-5.3641 -0.2106,-5.9256 -0.3095,-0.8715 -0.7044,-0.8443 -1.1675,-0.8523 l -4.3637,0.058 c -0.3429,0.007 -0.9251,0.1571 -0.8408,0.8766 l 0.1682,1.4401 c 0.1898,1.6618 -0.3863,2.1557 -2.6258,3.4746 l -4.0052,2.3516 c -0.9003,0.5514 -3.9371,2.3858 -3.7816,6.5411 l -0.152,0.056 c -1.9597,-2.4177 -4.2148,-2.5929 -6.3891,-2.2213 l -3.8522,0.6827 c -2.7071,0.5025 -3.3514,-0.0156 -4.0775,-1.0826 l -0.5226,-0.8892 0.9776,-0.5731 c 0.1903,-0.1086 0.7039,-0.4105 0.2928,-1.1149 l -3.6533,-6.2357 25.553,-14.9626 c 0.4201,-0.2474 0.8811,-0.6433 0.3888,-1.4871 l -2.6384,-4.5016 c -0.2459,-0.4211 -0.6408,-0.8806 -1.4855,-0.3878 l -25.5495,14.9637 -3.4604,-5.9074 c -0.2206,-0.3752 -0.5605,-0.7413 -1.3265,-0.5449 l -4.495,1.2472 c -0.3823,0.0995 -1.1771,0.25 -0.6292,1.1872 l 11.0028,18.7836 z m -62.5925,-62.2219 c 0.6444,0.2889 0.8282,0.0132 1.1771,-0.3666 l 24.2537,-27.8535 c 0.2308,-0.254 0.7377,-0.8594 -0.302,-1.325 l -5.3105,-2.3672 c -0.6443,-0.2863 -0.8039,-0.0606 -1.3578,0.6449 l -5.6191,7.1324 -8.5346,-3.8063 1.4022,-9.0103 c 0.1429,-1.1266 0.0157,-1.2432 -0.5792,-1.5078 l -5.507,-2.4556 c -0.2484,-0.1111 -0.819,-0.304 -1.0624,0.2414 -0.108,0.2484 -0.0777,0.4403 -0.1146,0.6635 l -4.541,36.3417 c -0.0752,0.562 -0.106,0.9028 0.3893,1.1265 z m 42.7485,-10.5423 -6.0609,8.4887 -1.6825,-1.1993 c -1.7223,-1.232 -5.5246,-3.9461 -2.4636,-8.2352 2.7474,-3.8467 6.0048,-2.0541 8.6159,-0.1913 z m -9.3754,13.1307 -5.6216,7.8711 -1.8567,-1.3254 c -4.0673,-2.904 -2.5353,-5.6141 -1.6819,-6.8068 2.6535,-3.7149 5.666,-2.2323 7.7873,-0.717 z m -3.8058,16.176 c 0.3959,0.2848 0.9463,0.5444 1.5144,-0.2519 l 20.3626,-28.5196 c 0.2837,-0.3989 0.5448,-0.9483 -0.2525,-1.5153 l -7.3374,-5.2399 c -4.8218,-3.4417 -11.5679,-6.9915 -16.9345,0.5262 -3.9462,5.5267 -1.2927,9.7586 0.1621,11.4618 -2.8752,-0.6488 -6.5315,-0.3898 -9.279,3.4574 -2.149,3.007 -2.196,5.9761 -1.5971,7.9393 0.9998,3.1827 4.2072,5.6065 6.3755,7.1542 z m 8.6493,8.8377 c 0.6418,0.7377 1.0407,0.5352 1.788,0.3156 l 15.6388,-4.5557 c 1.8845,-0.565 6.4942,-2.0597 8.7018,-2.8343 l 0.1439,0.1636 c -4.7409,3.9896 -3.9527,3.1585 -5.8746,4.8364 l -11.792,10.2858 c -0.3707,0.3212 -0.7479,0.7969 -0.103,1.5336 l 3.4265,3.93 c 0.3207,0.3696 0.7974,0.7478 1.5321,0.105 l 26.4093,-23.0363 c 0.3681,-0.3226 0.7478,-0.7973 0.103,-1.534 l -3.4261,-3.931 c -0.5362,-0.613 -0.8907,-0.5216 -1.5199,-0.3328 l -17.0874,4.9571 c -1.8471,0.5287 -3.7281,1.017 -7.4874,2.4934 l -0.1429,-0.1636 c 1.5042,-1.1679 3.5412,-2.7999 4.646,-3.7654 l 13.0196,-11.3563 c 0.3706,-0.3226 0.7478,-0.7973 0.1061,-1.534 l -3.4292,-3.931 c -0.6412,-0.7368 -1.1644,-0.4252 -1.5325,-0.1041 l -26.4093,23.0358 c -0.3671,0.3222 -0.7468,0.7978 -0.102,1.5325 z m 55.8777,70.9271 -1.075,-9.0653 c -0.0561,-0.4838 -0.2343,-1.066 -1.2049,-0.9513 l -3.6699,0.4352 c -0.4853,0.0566 -1.0685,0.2358 -0.9529,1.2069 l 1.0751,9.0643 -8.9588,1.0604 -1.2584,-10.6282 c -0.0929,-0.8104 -0.6539,-0.9079 -0.9311,-0.9296 l -4.1734,-0.5994 c -0.2207,-0.0298 -0.4979,-0.0494 -0.6943,0.1364 -0.1959,0.1873 -0.2176,0.465 -0.1934,0.6791 l 2.1677,18.2913 c 0.0561,0.4858 0.2343,1.0649 1.2054,0.9513 l 34.799,-4.1229 c 0.4883,-0.0565 1.066,-0.2338 0.9514,-1.2058 l -2.0668,-17.4813 c -0.0606,-0.4858 -0.2398,-1.065 -1.2088,-0.9514 l -3.6715,0.4343 c -0.9665,0.1156 -1.0079,0.7216 -0.9473,1.2088 l 1.3305,11.2215 z m -14.2694,33.8008 0.7418,-9.7551 30.1737,2.3056 c 0.4909,0.0369 1.0902,-0.0318 1.17,-1.0028 l 0.3959,-5.202 0.006,-0.1156 v -0.0238 -0.0712 -0.0237 c -0.0137,-0.4282 -0.1879,-0.8675 -1.0105,-0.9301 l -34.9404,-2.6636 c -0.4888,-0.0369 -1.0927,0.0262 -1.168,1.0018 l -1.7006,22.3172 c -0.0369,0.4868 0.0252,1.0907 1.0038,1.1655 l 34.939,2.6661 c 0.4908,0.0374 1.0942,-0.0253 1.1674,-1.0023 l 0.3949,-5.2025 c 0.0767,-0.9715 -0.5126,-1.1271 -1.0008,-1.1644 z m 22.447,19.7471 c -0.306,0.0813 -0.5933,0.1121 -0.7109,0.5362 -0.1046,0.3606 0.0959,0.8726 0.2651,1.4826 0.4403,1.6446 0.5196,3.1897 0.1111,4.6536 -0.6701,2.4101 -2.2168,3.5003 -3.4796,3.9921 -3.0903,1.172 -9.0982,-0.3297 -11.4033,-0.9715 -6.9082,-1.9249 -9.8076,-3.463 -10.9948,-5.4817 -0.769,-1.2892 -0.9871,-2.9272 -0.4918,-4.7092 0.4641,-1.6754 1.6128,-2.7656 3.0928,-3.8179 0.2803,-0.2065 0.7787,-0.5736 0.8817,-0.9412 0.0868,-0.3111 -0.1465,-0.4919 -0.3646,-0.7226 l -2.392,-2.754 c -0.1807,-0.155 -0.3453,-0.3732 -0.6074,-0.4484 -0.3146,-0.0864 -0.8064,0.056 -1.6386,0.6165 -2.4136,1.5825 -4.086,4.5607 -4.7995,7.1208 -1.5441,5.5504 -0.5605,14.1714 15.6135,18.6756 7.4324,2.0677 18.7397,3.576 22.0633,-8.3534 0.874,-3.1463 0.8165,-6.5972 -0.1879,-8.8523 -0.0994,-0.2555 -0.3484,-0.7791 -0.718,-0.8786 -0.207,-0.056 -0.4302,-0.0616 -0.8554,0.0445 z m -23.0075,38.2918 1.2932,-2.5722 c 3.4635,-6.8966 1.3144,-13.262 -5.0954,-16.4831 -4.7097,-2.3672 -7.9424,-1.3765 -9.89,-0.0434 -2.3823,1.6007 -3.9926,4.5592 -5.0888,6.7461 l -4.0028,7.9616 c -0.2176,0.4357 -0.3888,1.0149 0.4828,1.4572 l 31.3149,15.7292 c 0.4368,0.2242 1.0215,0.3924 1.4608,-0.4802 l 2.3399,-4.6597 c 0.4383,-0.8776 -0.0469,-1.2391 -0.4837,-1.4573 z m -14.8566,-7.4627 1.0751,-2.1359 c 0.9245,-1.8446 2.5348,-4.9283 7.0011,-2.6853 4.7091,2.3667 3.7068,5.3257 2.293,8.1473 l -0.7544,1.5018 z m -1.7224,29.8324 5.6535,-7.1692 c 0.3019,-0.3873 0.5847,-0.9226 -0.1808,-1.5275 l -2.903,-2.2864 c -0.3837,-0.3045 -0.9185,-0.5913 -1.5264,0.1813 l -5.6494,7.1637 -7.0829,-5.5807 6.6244,-8.4039 c 0.5044,-0.6418 0.1808,-1.1028 0,-1.3144 l -2.5258,-3.3766 c -0.1403,-0.1802 -0.3176,-0.3923 -0.5887,-0.3989 -0.2742,-0.005 -0.4828,0.1747 -0.6166,0.3429 l -11.4032,14.4643 c -0.302,0.3868 -0.5888,0.922 0.1807,1.5259 l 27.5213,21.6972 c 0.3832,0.305 0.9195,0.5857 1.5259,-0.1808 l 10.8953,-13.8225 c 0.3055,-0.3858 0.5888,-0.922 -0.1807,-1.5259 l -2.8995,-2.2864 c -0.7695,-0.605 -1.224,-0.2061 -1.5259,0.1807 l -6.9961,8.87 z m -34.4355,13.7357 7.3693,-6.429 19.896,22.7994 c 0.3211,0.3676 0.7973,0.7474 1.5325,0.1066 l 3.931,-3.4266 c 0.3671,-0.3237 0.7473,-0.7973 0.1055,-1.5386 l -23.0388,-26.4068 c -0.3206,-0.3671 -0.7942,-0.7473 -1.532,-0.0995 l -16.8693,14.7142 c -0.3671,0.3171 -0.7478,0.7973 -0.1035,1.5325 l 23.0373,26.4054 c 0.3206,0.3681 0.7963,0.7478 1.5315,0.106 l 3.931,-3.4321 c 0.7387,-0.6418 0.4267,-1.1655 0.1055,-1.5326 z m -18.6068,41.6295 c -1.6356,0.7367 -4.7658,1.2023 -7.4753,-4.791 -2.5758,-5.6917 -0.3272,-7.8408 1.4547,-8.6447 1.831,-0.8291 4.8738,-0.9594 7.4061,4.6405 2.5541,5.6372 0.3464,8.0105 -1.3855,8.7952 z m -11.6992,-13.7286 -0.1212,-0.6599 c -1.3639,-7.494 2.3021,-10.4656 4.6779,-11.5432 0.7412,-0.3368 1.4522,-0.4792 2.1869,-0.5736 0.6322,-0.0434 1.1402,0.0258 1.4396,-0.1121 0.2954,-0.1363 0.358,-0.5231 0.3196,-0.7413 l -0.5287,-3.936 c -0.0595,-0.3924 -0.0217,-0.7044 -0.8659,-0.86 -1.427,-0.2494 -3.4201,0.3555 -4.7067,0.9337 -3.5629,1.6138 -7.855,5.0459 -8.68,11.9234 -0.605,4.9833 0.978,10.5892 2.9933,15.0429 1.1427,2.5222 3.4751,6.8981 7.0112,9.1694 2.9429,1.895 6.3311,2.2672 10.1439,0.5423 5.298,-2.3985 9.1194,-8.1847 4.996,-17.2915 -3.6715,-8.1171 -9.5031,-9.5309 -14.2532,-7.3818 -0.9897,0.4483 -3.6967,1.8496 -4.4698,5.5372 z m -27.7571,23.0606 18.8276,-2.2294 0.6882,5.8302 -18.8275,2.2293 z m 4.6996,-13.4049 c 0.1995,1.6744 0.6165,2.8893 1.2558,3.6614 0.6473,0.7751 1.5068,1.0907 2.5934,0.9594 1.1341,-0.1303 1.9158,-0.7524 2.3617,-1.8562 0.4357,-1.0968 0.5292,-2.6853 0.2832,-4.7647 -0.2029,-1.7128 -0.617,-2.9767 -1.2335,-3.7745 -0.6136,-0.8034 -1.4356,-1.1397 -2.4698,-1.0215 -1.1719,0.1429 -1.996,0.7786 -2.4671,1.9056 -0.4666,1.1342 -0.5731,2.7722 -0.3237,4.8905 z m -7.2571,0.1626 c -0.3888,-3.2963 0.2837,-6.0185 2.0026,-8.1918 1.732,-2.1743 4.1078,-3.4392 7.1294,-3.8008 3.0458,-0.3605 5.6812,0.3858 7.8954,2.2304 2.2177,1.8562 3.5043,4.335 3.8749,7.4621 0.2343,1.9749 0.0435,3.7765 -0.563,5.4065 -0.6115,1.6265 -1.5835,3.0423 -2.9252,4.2482 -1.3461,1.1962 -3.1801,1.9329 -5.519,2.2131 -3.3019,0.3929 -6.015,-0.3504 -8.1514,-2.2167 -2.1335,-1.8622 -3.3822,-4.3178 -3.7437,-7.351 z m -34.7931,-13.8422 7.6091,-0.9034 18.2287,23.6534 -3.014,-25.4535 7.3909,-0.8786 4.5753,38.6271 -7.9857,0.9473 -17.8828,-23.0308 2.9383,24.8072 -7.2829,0.8579 z m -17.096,-12.6828 c -0.2606,-0.0747 -0.4267,-0.2863 -0.7478,-0.15 -0.252,0.0934 -0.4202,0.4984 -0.6944,0.8786 -0.769,1.1341 -1.8905,1.7254 -3.4609,1.2897 -1.5709,-0.4358 -2.2283,-1.5199 -2.297,-2.8969 -0.0262,-0.511 0.0965,-1.1589 -0.3752,-1.2892 -0.1555,-0.0444 -0.3267,-0.0318 -0.4857,-0.0752 l -3.5039,-0.5792 c -0.209,-0.0626 -0.5807,0.0621 -0.7261,0.5858 -0.2196,0.7847 -0.2858,1.838 0.2303,3.22 0.7296,1.838 2.349,3.925 6.0649,4.9591 3.7154,1.0342 6.1791,0.0869 7.7525,-1.1093 1.1599,-0.9211 1.6446,-1.8562 1.8643,-2.6409 0.1444,-0.5237 -0.1116,-0.8226 -0.3192,-0.8786 z m -0.2621,9.4562 c -0.9422,-0.2626 -1.1644,0.1308 -1.6683,0.7221 l -10.557,12.403 c -1.2654,1.5073 -4.2916,5.2889 -5.712,7.1521 l -0.2085,-0.0641 c 1.7648,-5.9362 1.5638,-4.8097 2.249,-7.2688 l 4.1931,-15.0752 c 0.1313,-0.4666 0.1873,-1.0715 -0.7549,-1.3331 l -5.0237,-1.4012 c -0.4722,-0.1308 -1.0761,-0.1868 -1.3382,0.7534 l -9.395,33.7629 c -0.1303,0.4746 -0.1864,1.0776 0.7559,1.3386 l 5.0247,1.3982 c 0.7857,0.2156 1.0296,-0.052 1.4502,-0.5554 l 11.5497,-13.5357 c 1.2518,-1.4512 2.5546,-2.8994 4.8829,-6.1993 l 0.2085,0.0622 c -0.6125,1.8001 -1.4163,4.287 -1.8107,5.7003 l -4.6314,16.6452 c -0.1313,0.4655 -0.1873,1.071 0.7559,1.3396 l 5.0237,1.3932 c 0.9438,0.262 1.2079,-0.2863 1.3392,-0.7519 l 9.393,-33.7639 c 0.1313,-0.4676 0.1874,-1.0781 -0.7549,-1.3402 z m -42.6505,6.2977 8.1559,4.0926 c 0.4378,0.2242 1.02,0.3924 1.4593,-0.4802 l 1.6588,-3.3014 c 0.2191,-0.4357 0.3888,-1.0215 -0.4838,-1.4572 l -8.1564,-4.0992 4.0487,-8.061 9.5652,4.8096 c 0.7277,0.3611 1.1175,-0.0495 1.2882,-0.2686 l 2.7999,-3.1514 c 0.1464,-0.1681 0.3166,-0.3863 0.2676,-0.6539 -0.0479,-0.2681 -0.2656,-0.4428 -0.46,-0.5358 l -16.4573,-8.2725 c -0.4373,-0.2177 -1.02,-0.3868 -1.4593,0.4857 l -15.7317,31.3139 c -0.2196,0.4363 -0.3908,1.017 0.4827,1.4573 l 15.7302,7.906 c 0.4368,0.2171 1.019,0.3863 1.4583,-0.4847 l 1.6578,-3.3044 c 0.4398,-0.8706 -0.045,-1.2377 -0.4828,-1.4573 l -10.0974,-5.0748 z m -35.4293,-11.2376 18.7367,-23.765 c 0.3019,-0.3863 0.5867,-0.922 -0.1808,-1.5259 l -4.0977,-3.2267 c -0.3832,-0.306 -0.92,-0.5923 -1.5259,0.1808 l -21.6936,27.5203 c -0.3035,0.3807 -0.5868,0.9159 0.1807,1.5259 l 15.3596,12.1041 -4.7763,6.061 c -0.302,0.3857 -0.5868,0.92 0.1807,1.5269 l 3.7134,2.9272 c 0.7675,0.6029 1.222,0.1979 1.524,-0.1818 l 7.7373,-9.8162 c 0.6059,-0.766 0.2035,-1.2215 -0.1808,-1.5264 l -1.7067,-1.3462 18.7341,-23.7645 c 0.304,-0.3797 0.5888,-0.9215 -0.1808,-1.5259 l -4.0956,-3.2271 c -0.3843,-0.3045 -0.92,-0.5848 -1.526,0.1812 l -18.7341,23.7644 z m 6.3649,-37.7682 c -0.6054,-0.7731 -1.0149,-0.5863 -1.7719,-0.405 l -15.8432,3.7679 c -1.9123,0.4737 -6.5891,1.7386 -8.8331,2.3985 l -0.1353,-0.1681 c 4.9328,-3.7503 4.1037,-2.959 6.1098,-4.541 l 12.288,-9.6864 c 0.3837,-0.2995 0.7852,-0.7539 0.1802,-1.526 l -3.2286,-4.0931 c -0.303,-0.3858 -0.7584,-0.7847 -1.526,-0.1808 l -27.5202,21.6972 c -0.3843,0.2984 -0.7867,0.7534 -0.1818,1.5259 l 3.2292,4.0931 c 0.5044,0.6408 0.8619,0.5666 1.4982,0.4106 l 17.3152,-4.1048 c 1.8683,-0.4357 3.7714,-0.8291 7.5995,-2.1182 l 0.1358,0.1747 c -1.5608,1.0902 -3.676,2.6227 -4.8278,3.5255 l -13.5695,10.7019 c -0.3833,0.299 -0.7847,0.7539 -0.1808,1.5199 l 3.2302,4.0987 c 0.6059,0.767 1.1411,0.4868 1.5259,0.1813 l 27.5198,-21.6972 c 0.3847,-0.2984 0.7862,-0.7534 0.1807,-1.5264 z m -25.657,-28.1631 2.2632,5.0021 -26.9764,12.2096 c -0.3959,0.1808 -0.9907,0.4484 -0.5196,1.4881 l 2.1279,4.6976 c 0.2242,0.4984 0.4974,0.972 1.4376,0.5418 l 31.9269,-14.4456 c 0.9392,-0.4242 0.765,-0.9412 0.5408,-1.4391 l -7.1885,-15.8852 c -0.4256,-0.9402 -0.9437,-0.7655 -1.4391,-0.5413 l -7.7933,3.4634 c -3.3155,1.5007 -9.3421,3.8684 -12.6435,5.0076 -5.0737,1.7007 -7.8994,1.782 -9.8843,-1.5502 l -0.502,-0.8483 c -0.2742,-0.4726 -0.7867,-0.4166 -1.2144,-0.0424 l -3.8946,3.2514 c -0.4782,0.3923 -0.2263,0.816 -0.0425,1.0901 l 0.4565,0.7479 c 0.4792,0.7973 1.6507,2.5974 3.4746,3.8558 4.3794,3.0892 8.8543,1.7749 14.3304,-0.2242 1.8986,-0.6792 7.2299,-2.7348 10.8655,-4.3168 z m 236.3258,-50.5004 c 0.0172,-0.3181 0.0379,-0.6358 0.0516,-0.9539 l -0.0314,0.6039 -0.002,-10e-4 z m 0.0526,-0.963 0.0106,-0.3443 -0.0142,0.3433 z m 0.0116,-0.359 c 0.0237,-0.5787 0.0424,-1.1578 0.057,-1.7365 l -3.0494,-1.9537 -0.2115,0.2682 c 0.5135,0.6069 0.7973,1.3633 0.7973,2.1647 0,0.1429 -0.0126,0.2863 -0.0343,0.4358 z m 0.0813,-3.2372 c 0.0166,-1.4194 0.0111,-2.8383 -0.0278,-4.2522 l -2.242,2.7964 z m -0.1217,-6.63 -0.0556,-0.9882 0.052,0.9801 z m -0.1576,-2.5646 c -0.0353,-0.4868 -0.0757,-0.9721 -0.1176,-1.4583 l 0.0247,0.2792 -4.5794,-7.1642 c -0.3867,0.0969 -0.7947,0.0646 -1.1618,-0.0975 l -6.3356,6.4427 c 0.262,0.3509 0.4458,0.7483 0.5453,1.1745 l 10.9826,1.3613 c 0.1248,-0.4039 0.3298,-0.7836 0.603,-1.1139 z m -0.2731,-3.1933 c -0.0258,-0.2596 -0.0596,-0.5171 -0.0884,-0.7766 l 0.0803,0.7639 z m -0.0884,-0.7787 c -0.2479,-2.2763 -0.563,-4.542 -0.9503,-6.792 l -2.0062,0.7735 c -0.0182,0.3283 -0.1237,0.6413 -0.308,0.9125 z m -0.9513,-6.7966 -0.0561,-0.3428 -0.004,0.002 z m -0.148,-0.8311 -0.002,-0.009 v 0.004 z m -0.004,-0.0182 -0.002,-0.01 v 0.002 z m -0.004,-0.0187 -0.005,-0.0288 z m -0.0757,-0.4085 c -0.1146,-0.6241 -0.2297,-1.2467 -0.3555,-1.8678 l -1.6517,2.6424 z m -0.7377,-3.6664 c -0.1626,-0.7438 -0.3353,-1.4851 -0.5136,-2.2258 -0.4075,0.2408 -0.8715,0.3943 -1.3658,0.4367 l -0.5515,5.6615 c 0.003,0 0.006,0 0.01,10e-4 z m -0.6817,-2.9318 -0.1959,-0.7685 0.1934,0.7701 z m -1.4654,-5.3514 c -0.2913,-0.9645 -0.5993,-1.9249 -0.916,-2.8813 l 0.6691,2.8924 c 0.0778,-0.008 0.153,-0.0111 0.2308,-0.0111 z m -3.4872,-9.8561 -0.001,-0.003 c -0.1211,-0.2975 -0.2484,-0.5929 -0.3721,-0.8888 l 0.3802,0.9226 z m -0.7872,-1.8698 c -0.2035,-0.4762 -0.4115,-0.9509 -0.6211,-1.424 -0.4605,-0.0414 -0.9053,-0.1818 -1.3093,-0.412 l -8.7432,9.9934 c 0.1343,0.1929 0.2303,0.4126 0.2808,0.6474 l 11.7794,4.6536 c 0.3146,-0.5923 0.8095,-1.0761 1.4114,-1.378 z m -0.9104,-2.0638 c -0.2706,-0.5978 -0.5463,-1.1927 -0.8266,-1.785 0.2641,0.56 0.5236,1.122 0.7802,1.6856 h 10e-4 l 0.0136,0.0313 z m -1.4431,-3.0675 -0.3,-0.6151 -0.002,0.005 z m -2.3445,-4.5153 c -1.016,-1.8542 -2.0844,-3.6816 -3.2064,-5.4777 -0.1096,0.51 -0.3444,0.9837 -0.6853,1.3886 z m -4.0295,-6.7653 c -0.2929,-0.4545 -0.5893,-0.9069 -0.8887,-1.3568 0.2984,0.4499 0.5948,0.8993 0.8887,1.3568 z m -1.7229,-2.599 c -2.5712,-3.7538 -5.3802,-7.3601 -8.42,-10.7923 l -0.007,-0.001 0.3292,0.3737 -2.1788,-0.1808 c -0.1157,0.3924 -0.2995,0.7585 -0.5514,1.0836 l 8.5866,9.8839 c 0.6782,-0.3883 1.4856,-0.5165 2.2415,-0.3671 z m -8.4205,-10.7938 c -0.1611,-0.1817 -0.3277,-0.359 -0.4893,-0.5393 z m -0.9195,-1.0139 c -0.4358,-0.4797 -0.8736,-0.9579 -1.3185,-1.431 0.2576,0.4039 0.4287,0.867 0.4873,1.3623 z m 19.5915,77.8566 -5.0642,1.2174 c -0.1807,-0.2646 -0.4302,-0.4726 -0.7165,-0.61 l 0.6726,-8.8457 c 0.4989,-0.1186 0.9498,-0.3474 1.3336,-0.6715 l 8.8018,5.6423 -0.1308,0.159 c -0.4828,-0.256 -1.013,-0.3898 -1.5517,-0.3898 -1.8461,0 -3.3514,1.5048 -3.3514,3.3554 0,0.0459 0.004,0.0929 0.007,0.1429 z m -8.3095,2.5727 -2.4919,1.5477 c -0.5145,-0.4918 -1.1619,-0.7973 -1.8688,-0.8776 l -2.9125,-9.2174 c 0.1373,-0.0929 0.2681,-0.1989 0.3928,-0.3125 l 7.042,7.707 c -0.1308,0.2525 -0.1999,0.5262 -0.1999,0.8105 0.001,0.1121 0.0131,0.2267 0.0383,0.3423 z m -7.9807,3.8684 -7.0572,-0.9528 c -0.0186,-0.8443 -0.3706,-1.6446 -0.9816,-2.24 l 5.6721,-8.7063 c 0.6327,0.1808 1.2866,0.1808 1.9032,0.0197 l 2.7817,8.7957 c -1.3552,0.4115 -2.3056,1.6471 -2.3182,3.0837 z m -20.4691,-9.9293 c 0.0495,-0.1656 0.0879,-0.3398 0.1121,-0.5171 l 6.127,-0.3923 c 0.2333,0.5665 0.713,0.9998 1.3043,1.1705 l 1.022,5.9619 c -0.2307,0.1308 -0.4448,0.2929 -0.6448,0.4863 z m -10.9791,-4.9571 c 0.053,-0.2368 0.0813,-0.461 0.0813,-0.6807 0,-1.1472 -0.5888,-2.197 -1.5517,-2.809 l 1.8688,-4.7238 c 0.1222,0.003 0.2181,-0.008 0.3272,-0.0298 l 5.5721,9.4077 c -0.4393,0.2459 -0.819,0.5969 -1.1058,1.0205 z m -11.3159,14.8804 c -0.0738,-0.0813 -0.149,-0.1566 -0.2242,-0.2242 l 7.1607,-12.1865 c 1.4148,0.511 3.0493,-0.053 3.881,-1.2926 l 5.1949,2.1854 c -0.0525,0.2302 -0.0777,0.4393 -0.0777,0.6443 0,0.3706 0.0686,0.7413 0.2024,1.1033 z m -8.1322,7.4747 c -1.2114,-0.866 -2.9272,-0.7599 -4.0114,0.2116 l -21.8961,-16.6694 c 0.0591,-0.1212 0.1121,-0.2424 0.1556,-0.3671 l 11.378,1.4916 c 0.106,1.7507 1.5668,3.1454 3.3453,3.1454 1.7309,0 3.168,-1.3326 3.3321,-3.0267 l 2.9005,-0.2742 c 0.408,1.3583 1.6718,2.3172 3.1145,2.3172 0.464,0 0.916,-0.103 1.3517,-0.308 l 4.0866,5.6342 c -0.8004,0.6166 -1.2715,1.5512 -1.2715,2.5632 0,0.7882 0.2969,1.5512 0.8231,2.1425 z m -5.9115,23.6246 c -0.4701,-0.2394 -0.9871,-0.3666 -1.5138,-0.3666 -0.2646,-0.001 -0.5322,0.0368 -0.8034,0.1055 l -4.5592,-10.7397 c 0.3479,-0.3363 0.554,-0.8064 0.554,-1.2993 0,-0.8533 -0.6014,-1.5719 -1.4114,-1.7501 l -1.1962,-8.1413 c 0.3429,-0.1717 0.6266,-0.4368 0.8195,-0.7605 l 8.9053,1.9284 c 0,0.0157 -0.004,0.0308 -0.004,0.0465 0,1.6941 1.3022,3.0872 2.9938,3.2392 l 0.9625,8.058 c -1.4301,0.358 -2.4698,1.6537 -2.4698,3.1428 0,0.8877 0.3606,1.7224 0.9998,2.3324 z m -6.3911,9.086 c -0.1707,-0.0565 -0.3464,-0.0848 -0.5236,-0.0848 -0.9897,0 -1.7997,0.8099 -1.7997,1.8037 0,0.206 0.0369,0.405 0.1091,0.6014 l -7.0617,4.949 c -0.2894,-0.1964 -0.6257,-0.305 -0.9771,-0.3111 l -3.9684,-11.0392 c 0.8715,-0.5261 1.4421,-1.4138 1.5542,-2.4161 l 5.1323,-0.916 c 0.3151,0.4201 0.8069,0.6761 1.3366,0.6761 0.5605,0 1.0776,-0.2838 1.3897,-0.7413 l 6.3411,1.3301 c 0,0.0126 -0.003,0.0277 -0.003,0.0434 0,0.866 0.3489,1.6976 0.9599,2.3268 z m -0.6166,15.4919 c -0.0252,0.1131 -0.0378,0.2277 -0.0378,0.3423 0,0.7201 0.4327,1.3619 1.0841,1.6421 l -0.3237,6.9522 c -0.1929,0.0651 -0.3736,0.161 -0.5362,0.2832 l -4.8996,-3.0024 c 0.1379,-0.3646 0.2091,-0.7387 0.2091,-1.1159 0,-1.7527 -1.3952,-3.1857 -3.1302,-3.2509 l -1.1371,-7.0365 c 0.0686,-0.0373 0.1338,-0.0807 0.1934,-0.1277 z m -11.0821,14.7672 c -1.0245,-0.3681 -2.1556,-0.1747 -3.009,0.4726 l -6.9036,-5.6559 c 0.2858,-0.5135 0.4347,-1.0927 0.4347,-1.6916 0,-0.7094 -0.2257,-1.4103 -0.6418,-2.0021 l 5.7095,-5.7998 4.8061,3.6124 c -0.2151,0.4433 -0.3272,0.9134 -0.3272,1.3987 0,1.2406 0.6943,2.349 1.7936,2.8969 z m -3.4422,12.8161 c -0.0647,-0.006 -0.1298,-0.009 -0.1985,-0.009 -1.7946,0 -3.2549,1.4614 -3.2549,3.2549 0,0.0712 0.006,0.1429 0.0116,0.2116 l -5.364,1.4422 c -0.5459,-1.1059 -1.6563,-1.8068 -2.9075,-1.8068 -1.7936,0 -3.2529,1.4614 -3.2529,3.2549 0,0.7448 0.2525,1.4548 0.716,2.0304 l -3.4958,4.1745 c -0.0903,-0.0409 -0.1817,-0.0778 -0.2802,-0.1061 l -0.6463,-14.2779 c 1.4138,-0.3737 2.4111,-1.6472 2.4111,-3.1327 0,-0.4484 -0.0949,-0.8877 -0.2823,-1.3053 l 3.4029,-1.8067 c 0.3383,0.3615 0.8084,0.5731 1.3093,0.5731 0.8524,0 1.5775,-0.61 1.7557,-1.4164 l 9.3689,0.1772 c 0.3645,1.1175 1.3022,1.9436 2.4586,2.1744 z M 406.727,375.5075 c 0.1374,-0.364 0.205,-0.7377 0.205,-1.1144 0,-0.0192 0,-0.0379 -0.001,-0.0571 l 8.4125,-2.3106 c 0.3772,0.7791 1.02,1.3795 1.8239,1.7067 l -1.1124,5.3641 c -0.2864,0.0242 -0.5651,0.1182 -0.811,0.2767 z m -1.3972,-3.9053 2.9666,-6.9117 c 1.0513,0.2555 1.9779,0.0217 2.7798,-0.5514 l 4.5117,4.4163 c -0.3954,0.5832 -0.6029,1.2492 -0.6029,1.9435 5e-4,0.1005 0.007,0.2 0.0161,0.2969 l -8.3564,2.2915 c -0.2742,-0.6191 -0.7362,-1.1427 -1.3149,-1.4851 z m -7.3429,-32.6076 c 0.3105,-0.3327 0.4812,-0.7629 0.4812,-1.2179 0,-0.3681 -0.1121,-0.7195 -0.3191,-1.0154 l 4.7328,-8.867 c 0.4999,0.2929 1.0544,0.4484 1.6245,0.4484 1.792,0 3.2513,-1.4613 3.2513,-3.2549 0,-0.5019 -0.1151,-0.9846 -0.3408,-1.4391 l 6.02,-4.641 c 0.614,0.7413 1.5234,1.1746 2.498,1.1746 0.7215,0 1.4159,-0.2434 1.9844,-0.6888 l 3.723,3.2327 c -0.3226,0.5453 -0.4908,1.1528 -0.4908,1.7759 0,0.6726 0.1964,1.3235 0.5686,1.8966 l -6.8653,6.479 c -0.2444,-0.1187 -0.511,-0.1813 -0.7822,-0.1813 -0.9917,0 -1.7981,0.8064 -1.7981,1.7976 0,0.2586 0.0525,0.507 0.1555,0.7347 l -9.0391,9.0391 c -0.3933,-0.1626 -0.8003,-0.2459 -1.2098,-0.2459 -0.3671,0 -0.7267,0.0652 -1.073,0.1863 z m 3.3473,-14.5703 -8.7059,-0.0661 c -0.2802,-1.4765 -1.5239,-2.5657 -3.0322,-2.6343 l -2.1364,-13.9447 c 0.414,-0.149 0.7922,-0.3823 1.1129,-0.6852 l 7.0107,4.946 c -0.1611,0.3923 -0.2414,0.7973 -0.2414,1.2053 5e-4,1.7946 1.4598,3.2549 3.2529,3.2549 0.2545,0 0.5171,-0.0374 0.7928,-0.1086 l 2.9009,6.3285 c -0.4888,0.4585 -0.8205,1.0468 -0.9543,1.7042 z m -22.849,-6.6224 c 0.2459,-0.464 0.3752,-0.9811 0.3752,-1.5098 0,-0.5761 -0.1545,-1.1376 -0.4479,-1.6421 l 6.3018,-7.1066 c 0.4575,0.2676 0.9634,0.4201 1.4835,0.4418 l 2.1375,13.9472 c -0.5004,0.1808 -0.9503,0.4858 -1.3073,0.8842 z m 7.7914,7.8555 -5.8948,2.5475 c -0.6074,-0.8751 -1.6012,-1.4073 -2.6616,-1.4073 -1.4628,0 -2.7302,0.9781 -3.1246,2.3642 l -6.1089,-0.4893 c -0.1914,-1.6073 -1.5774,-2.8712 -3.2256,-2.8712 -0.3646,0 -0.7307,0.0677 -1.0932,0.199 l -2.3233,-3.8588 c 0.6822,-0.6201 1.0665,-1.48 1.0665,-2.3985 0,-0.0157 0,-0.0308 0,-0.047 l 9.7253,-2.1087 c 0.5125,1.1836 1.6719,1.9592 2.9701,1.9592 0.7504,0 1.4719,-0.2646 2.0577,-0.7448 l 8.7124,5.1182 c -0.1207,0.3454 -0.1833,0.6978 -0.1833,1.0558 0,0.2207 0.0262,0.4424 0.0833,0.6817 z m -25.4772,-24.6526 c 1.2684,0.3555 2.6227,-0.0838 3.4437,-1.0559 l 6.93,3.9063 -10.9367,2.037 c -0.2263,-0.355 -0.5267,-0.6479 -0.8771,-0.8569 z m 13.7391,2.4394 3.4918,-3.8472 -2.3915,13.4367 c -0.0242,-0.007 -0.0459,0 -0.0722,0 l -1.5966,-7.494 c 0.4564,-0.3085 0.7306,-0.819 0.7306,-1.3825 0,-0.2459 -0.055,-0.4888 -0.1621,-0.713 z m -13.9598,4.5653 c 0.0606,-0.2242 0.0904,-0.451 0.0904,-0.6752 0,-0.0712 -0.004,-0.1464 -0.0101,-0.2216 l 10.9549,-2.0405 c 0.2479,0.3832 0.6493,0.6549 1.1058,0.7387 l 1.5992,7.503 c -0.6272,0.2747 -1.1543,0.7352 -1.5017,1.3144 z m -2.5747,2.9221 0.1616,-0.922 c 0.6907,-0.047 1.3401,-0.3646 1.8036,-0.8782 l 12.4167,6.7149 c -0.0217,0.1464 -0.0323,0.2959 -0.0323,0.4458 0,0.0152 0,0.0308 0,0.047 l -9.7253,2.1082 c -0.5145,-1.1836 -1.6734,-1.9592 -2.9716,-1.9592 -0.1404,0 -0.2803,0.0121 -0.4358,0.0373 l -1.0064,-2.9186 c 0.3601,-0.3171 0.5686,-0.7695 0.5686,-1.2583 0,-0.5822 -0.2974,-1.1149 -0.7791,-1.4169 z m 13.7962,-19.5319 c 0.6095,0.8452 1.584,1.3583 2.6293,1.3583 1.636,0 3.012,-1.2407 3.222,-2.8318 l 7.3274,0.5994 c 0.1383,1.3613 1.0609,2.5187 2.3571,2.9575 l -1.1624,8.0044 c -1.7133,0.0904 -3.0797,1.5144 -3.0797,3.2494 0,0.7059 0.2343,1.3921 0.6655,1.9556 l -6.2028,7.0022 c -0.2025,-0.15 -0.4267,-0.2803 -0.67,-0.3833 l 2.4969,-14.0164 c 0.8408,-0.159 1.4639,-0.8877 1.4639,-1.7653 0,-0.9937 -0.8074,-1.8036 -1.7992,-1.8036 -0.9917,0 -1.7981,0.8099 -1.7981,1.8036 0,0.2828 0.0667,0.557 0.1959,0.8125 l -3.8573,4.2396 c -0.5499,-0.2025 -1.1573,-0.0904 -1.6032,0.261 l -7.1132,-4.0052 c 0.1146,-0.3459 0.1727,-0.6979 0.1727,-1.0529 0,-0.4701 -0.103,-0.9316 -0.3085,-1.3734 z m 25.0531,0.359 c 0.111,1.4022 1.0886,2.5813 2.4419,2.9519 l -1.2089,15.3333 c -0.6806,0.1055 -1.3154,0.4332 -1.8026,0.9311 l -6.9714,-4.9273 c 0.1919,-0.4201 0.2884,-0.8624 0.2884,-1.3108 0,-1.3866 -0.8751,-2.601 -2.1632,-3.0595 l 1.1654,-8.003 c 1.4916,-0.0575 2.7888,-1.0684 3.219,-2.4833 z m 9.6324,7.804 c -0.4358,0.567 -0.6731,1.2558 -0.6731,1.9718 0,0.7044 0.2317,1.3861 0.6604,1.9501 l -6.2139,6.9733 c -0.2777,-0.1646 -0.5776,-0.2868 -0.8932,-0.3645 l 1.2033,-15.2808 c 0.4761,-0.054 0.9311,-0.2095 1.3441,-0.46 z m 6.3381,18.3023 -6.1856,4.7683 c -0.5923,-0.5171 -1.3382,-0.8004 -2.1319,-0.8004 -0.3798,-5e-4 -0.7559,0.0717 -1.12,0.2091 l -2.8434,-6.2018 c 0.8236,-0.614 1.3063,-1.5633 1.3063,-2.5949 0,-0.6908 -0.2277,-1.3634 -0.6443,-1.9274 l 6.221,-6.9799 c 0.7256,0.4272 1.5537,0.5695 2.4136,0.3484 l 4.4375,9.4476 c -0.9791,0.5847 -1.5966,1.6471 -1.5966,2.7934 0,0.315 0.0485,0.6296 0.1434,0.9376 z m -0.5171,-16.586 11.4568,-3.264 c 0.506,0.9836 1.4699,1.638 2.5692,1.7476 l 0.869,5.4257 c -0.6544,0.3388 -1.0816,1.0185 -1.0816,1.7719 0,0.2428 0.0475,0.4827 0.1379,0.713 l -8.2575,6.7375 c -0.5812,-0.4767 -1.3033,-0.7387 -2.0657,-0.7387 -0.1429,0 -0.2873,0.0126 -0.4449,0.0353 l -4.493,-9.5663 c 0.8336,-0.6165 1.3224,-1.5693 1.3224,-2.6065 0,-0.0874 -0.005,-0.1707 -0.0126,-0.2555 z m 27.4218,10.7549 c -0.4701,0 -0.9246,0.1717 -1.2866,0.4797 l -8.3473,-5.105 c 0.0353,-0.1455 0.0535,-0.2959 0.0535,-0.4484 0,-0.9872 -0.7352,-1.8194 -1.685,-1.9809 l -0.8564,-5.3389 c 0.4423,-0.1363 0.8432,-0.3671 1.1927,-0.6726 l 21.8996,16.6669 c -0.0192,0.0374 -0.0374,0.0778 -0.056,0.1212 l -8.9119,-1.9309 c -0.1121,-1.0064 -0.968,-1.7901 -2.0026,-1.7911 z m 1.7794,15.4893 c 0.003,0 0.003,0 0.006,0 l 4.5789,10.7923 c -0.4929,0.3555 -0.8751,0.8407 -1.1094,1.3987 l -6.3538,-1.3275 c -0.0651,-0.358 -0.2459,-0.6817 -0.5135,-0.9246 z m -14.1194,9.4814 -0.6786,-4.0749 3.675,-0.6443 c 0.3671,0.5857 1.0776,0.8943 1.7936,0.7413 l 3.3857,4.7753 c -0.1273,0.1989 -0.2111,0.4231 -0.2459,0.6574 l -4.9208,0.8776 c -0.3898,-1.3386 -1.5981,-2.2864 -3.009,-2.3324 z m 3.8063,18.2706 -8.6725,0.2333 c -0.1747,-0.7822 -0.6205,-1.4664 -1.2633,-1.944 l 5.6468,-10.0849 c 0.2803,0.0343 0.5979,0.0217 0.8498,-0.0151 l 3.9654,11.0442 c -0.2393,0.206 -0.4237,0.4701 -0.5262,0.7665 z m -8.8552,2.2738 c 0.103,-0.2404 0.1782,-0.4954 0.2196,-0.7604 l 8.67,-0.2343 c 0.009,0.0227 0.0182,0.0409 0.0283,0.0636 l -4.3174,4.3845 z m -14.431,-6.8749 -3.2766,3.0843 c -0.3161,-0.1505 -0.6534,-0.2308 -0.9892,-0.2308 -0.0172,0 -0.0333,0.002 -0.0505,0.002 l -0.5009,-3.1322 c 0.7423,-0.2191 1.3745,-0.6918 1.7991,-1.3401 z m 12.196,2.34 c -0.209,-0.0571 -0.416,-0.094 -0.6231,-0.1066 l -1.1401,-8.7896 c 0.4847,-0.2586 0.8256,-0.7287 0.9205,-1.2675 l 5.1868,-1.0124 c 0.2919,0.5231 0.7135,0.9498 1.2205,1.2402 z m -3.3967,-8.8553 c 0.1166,0.053 0.2378,0.0964 0.3645,0.1247 l 1.1427,8.7922 c -0.5337,0.1807 -1.018,0.4953 -1.4052,0.9159 l -6.73,-3.6038 z m 8.7437,-11.0099 0.6821,4.0734 c -1.2558,0.4766 -2.1071,1.6789 -2.1046,3.0271 0,0.1222 0.008,0.2429 0.0217,0.3682 l -5.0283,0.978 c -0.3246,-0.5261 -0.8998,-0.8564 -1.5315,-0.8564 -0.0227,-10e-4 -0.0469,0.003 -0.0697,0.003 l -2.1041,-4.949 c 0.2707,-0.2586 0.4494,-0.5923 0.5201,-0.9594 z m -2.856,-5.8216 c 0.5837,0.4292 1.281,0.669 1.9985,0.6817 l 0.6484,3.881 -9.181,1.6068 z m 7.652,3.4473 c -0.0308,0.0838 -0.0591,0.1691 -0.0778,0.2519 l -3.669,0.6459 -0.6443,-3.8816 c 0.2919,-0.109 0.5757,-0.2545 0.8342,-0.4418 z m 9.4284,-4.7491 -6.8618,4.0265 c -0.2893,-0.2242 -0.6418,-0.3454 -1.0089,-0.3454 -0.2307,0 -0.461,0.05 -0.6761,0.1464 l -3.5543,-3.4235 c 0.3873,-0.5756 0.5923,-1.2386 0.5923,-1.9274 0,-0.4918 -0.1086,-0.972 -0.3212,-1.433 l 10.6802,-7.4061 c 0.2494,0.1858 0.5388,0.311 0.8473,0.364 l 1.1957,8.1358 c -0.563,0.3141 -0.9245,0.9149 -0.9245,1.5658 0,0.097 0.009,0.1964 0.0313,0.2969 z m -1.8784,-11.4159 -10.6802,7.4132 c -0.3328,-0.3333 -0.7287,-0.5918 -1.1654,-0.763 l 2.4394,-12.3036 c 0.3832,-0.0459 0.7377,-0.2014 1.0341,-0.4539 l 8.3438,5.0985 c -0.0333,0.1489 -0.052,0.2989 -0.052,0.4483 0,0.1904 0.0277,0.3767 0.0803,0.5605 z m -18.9902,0.7974 8.2605,-6.7462 c 0.0217,0.0152 0.0434,0.0278 0.0687,0.044 l -2.4359,12.2965 c -0.0126,-0.004 -0.0288,-0.004 -0.0404,-0.004 -0.7973,0 -1.5603,0.2711 -2.1809,0.7665 l -3.7194,-3.2327 c 0.2807,-0.4918 0.4272,-1.0407 0.4272,-1.6042 0,-0.5333 -0.1313,-1.0529 -0.3798,-1.5204 z m -5.4746,20.7286 c 0.2504,0.1152 0.5302,0.1677 0.8104,0.1586 l 2.1016,4.9495 c -0.3494,0.3358 -0.5524,0.8064 -0.5524,1.2982 0,0.2333 0.0465,0.4641 0.1384,0.6827 l -6.9406,6.5275 -3.5185,-1.8865 c 0.0404,-0.2065 0.0606,-0.3989 0.0606,-0.5888 0.002,-0.866 -0.3418,-1.6825 -0.9538,-2.2889 z m -1.4634,23.0515 c -0.664,-0.8913 -1.69,-1.4174 -2.8034,-1.4174 -0.7418,0 -1.4624,0.2428 -2.0653,0.6852 l -1.3921,-1.3083 c 0.2504,-0.3833 0.3812,-0.8165 0.3812,-1.2675 0,-0.461 -0.1318,-0.8968 -0.3878,-1.283 l 3.4963,-3.2862 7.0455,3.7719 c -0.1464,0.3833 -0.2196,0.7721 -0.2196,1.1654 0,0.2929 0.0404,0.5823 0.1237,0.8751 z m -8.7073,8.475 0.6362,-9.444 c 0.2949,-0.0182 0.5817,-0.096 0.8483,-0.2207 l 1.479,1.3886 c -0.3731,0.5731 -0.5685,1.2205 -0.5685,1.8941 0,1.171 0.5923,2.2586 1.5648,2.906 l -3.0004,6.9854 c -0.151,-0.0217 -0.2974,-0.0343 -0.4423,-0.0343 -0.094,0 -0.1889,0.008 -0.2869,0.0167 l -0.0919,-0.5605 c 0.4944,-0.306 0.7994,-0.8418 0.7994,-1.4331 0,-0.6382 -0.3737,-1.2215 -0.9377,-1.4982 z m 17.2859,-0.0626 c -1.1816,-0.8099 -2.7888,-0.7998 -3.9643,0.0374 l -4.5133,-4.4128 c 0.3969,-0.5797 0.6039,-1.2467 0.6039,-1.944 0,-0.3181 -0.0449,-0.6327 -0.1383,-0.9503 l 4.1769,-2.0623 c 0.6322,0.8357 1.6037,1.3276 2.6581,1.3276 0.8862,0 1.7279,-0.3581 2.3551,-0.9913 l 4.4112,3.3181 z m -3.1625,11.8547 1.1301,-5.4484 c 0.0252,0 0.0515,0.004 0.0767,0.004 0.8383,0 1.6295,-0.2928 2.2632,-0.8291 l 6.8603,5.6161 c -0.2525,0.4241 -0.405,0.8907 -0.4449,1.3734 l -9.4072,-0.1807 c -0.1202,-0.2081 -0.2818,-0.3889 -0.4782,-0.5353 z m 14.8814,-21.9431 c 0.1146,0.0531 0.2358,0.0904 0.3605,0.1157 l 1.1377,7.042 c -0.3772,0.1399 -0.7236,0.3489 -1.0256,0.6165 l -4.6713,-3.5099 z m 4.7526,-20.4938 c -0.1091,0.002 -0.2152,0.0181 -0.3182,0.0434 l -3.3796,-4.7783 c 0.1722,-0.2677 0.2626,-0.5696 0.2626,-0.8903 0,-0.0813 -0.007,-0.159 -0.0192,-0.2368 l 6.8214,-4.0063 z m -2.5692,-59.222 c 0.5352,-0.4267 0.9276,-1.0134 1.1149,-1.6729 h 5.6367 c 0.2091,1.6093 1.5669,2.8257 3.2211,2.8257 0.3621,0 0.7201,-0.0606 1.0624,-0.1818 l 5.4065,7.2551 c -0.2333,0.3348 -0.3615,0.7322 -0.3615,1.1448 0,0.4827 0.1782,0.9437 0.4928,1.3063 l -5.2954,7.2687 c -0.3888,-0.149 -0.7847,-0.2267 -1.177,-0.2267 -0.3363,0 -0.6701,0.0525 -0.9938,0.1555 z m 14.9409,-14.7304 c 0.1863,0.1636 0.3949,0.3055 0.6166,0.4242 l -5.1707,8.9775 c -0.1374,-0.0172 -0.2737,-0.0253 -0.4141,-0.0253 -1.4825,0 -2.7565,0.9933 -3.1362,2.4031 h -5.6287 c -0.0459,-0.352 -0.1489,-0.6989 -0.3085,-1.0246 z m -1.0659,-2.9453 -13.0343,0.5685 14.2492,-9.3067 c 0.1717,0.1232 0.3615,0.2151 0.567,0.2712 l 0.508,5.8493 c -1.2058,0.351 -2.0965,1.3725 -2.2899,2.6177 z m -14.28,-0.145 c -0.0879,-0.0631 -0.1808,-0.1181 -0.2802,-0.1646 l 0.7594,-9.3425 c 1.2088,-0.1419 2.2455,-0.964 2.6661,-2.1082 l 11.624,1.7911 c 0.006,0.052 0.0151,0.1075 0.0277,0.1615 z m -2.3743,0.2298 -7.5868,-3.0812 c -0.0137,-0.1707 -0.0465,-0.3408 -0.098,-0.5055 l 8.3433,-6.691 c 0.2888,0.1964 0.5973,0.3443 0.921,0.4378 l -0.763,9.341 c -0.311,0.0904 -0.5948,0.2621 -0.8165,0.4989 z m 17.5177,-38.0131 c 0.5696,0.102 1.1119,-0.0858 1.5068,-0.4565 l 3.8129,4.177 c -0.2343,0.3343 -0.3616,0.7322 -0.3616,1.1442 0,0.047 0.004,0.0949 0.006,0.1429 l -6.0074,2.5 c -0.3807,-0.4358 -0.9286,-0.6898 -1.5143,-0.6898 -1.1124,0 -2.0153,0.9014 -2.0153,2.0123 0,0.0308 0.004,0.0636 0.004,0.0949 l -1.9006,0.6059 c -0.1121,-0.2009 -0.2459,-0.3898 -0.3984,-0.5625 z m 5.9206,6.5765 -1.6532,3.4397 c -0.8726,0.0424 -1.6952,0.4413 -2.2774,1.0988 l -2.6065,-1.7522 c 0.0495,-0.1747 0.0742,-0.3525 0.0742,-0.5327 0,-0.047 -0.003,-0.095 -0.007,-0.1434 l 6.0084,-2.499 c 0.1313,0.1499 0.2904,0.2812 0.4611,0.3888 z m 14.4339,-0.9614 -13.5114,5.4978 c -0.3464,-0.3913 -0.7822,-0.6917 -1.2649,-0.8771 l 1.6229,-3.371 c 0.769,-0.0889 1.423,-0.6155 1.6724,-1.3447 z m 2.0587,0.5408 c 0.1833,0.4251 0.4509,0.8018 0.7908,1.1103 l -4.3512,7.2824 c -0.414,-0.1838 -0.8443,-0.2757 -1.2836,-0.2757 -1.4542,0 -2.7312,0.9953 -3.1201,2.3733 l -6.9092,-2.4495 c 0.0879,-0.299 0.1349,-0.609 0.1349,-0.9281 0,-0.352 -0.0596,-0.7009 -0.1783,-1.0407 z m 18.211,10.764 c -0.2242,0.4484 -0.3429,0.9392 -0.3429,1.435 0,0.5433 0.1339,1.071 0.3899,1.5411 l -4.9617,4.1164 c -0.5983,-0.4929 -1.3401,-0.7605 -2.1213,-0.7605 -1.2835,0 -2.4262,0.7216 -2.9933,1.8618 l -0.6201,-0.1717 c -0.0586,-1.0604 -0.9377,-1.9042 -2.0117,-1.9042 -0.4302,0 -0.8407,0.1348 -1.1831,0.3868 l -6.2952,-4.4688 c 0.2212,-0.4484 0.3398,-0.9372 0.3398,-1.43 0,-0.8327 -0.3337,-1.6386 -0.9195,-2.2465 l 4.3956,-7.3541 c 1.2331,0.4464 2.6192,0.0732 3.4847,-0.8736 z m -12.0663,-11.3851 9.9642,2.0334 c 0.0278,1.4436 1.2053,2.6116 2.6535,2.6262 l 0.6817,5.3848 c -0.1646,0.0975 -0.3176,0.2091 -0.455,0.3272 l -12.9565,-9.9576 c 0.0435,-0.1318 0.0808,-0.2711 0.1121,-0.414 z m 9.9208,-4.8233 c 0.3388,0.3908 0.8281,0.6165 1.3517,0.6165 0.6751,0 1.2826,-0.3767 1.5876,-0.9634 l 5.2616,0.6382 c 0.0368,0.4484 0.1646,0.8832 0.3761,1.2801 l -4.0143,3.2963 c -0.4989,-0.4777 -1.1523,-0.7453 -1.8416,-0.7453 -1.0179,-5e-4 -1.9465,0.5888 -2.3914,1.4901 l -9.998,-2.0415 z m 32.4197,66.7432 10.8206,1.3426 c 0.0591,0.5666 0.2742,1.1119 0.6165,1.5785 l -2.9272,3.6568 -8.8118,-5.6483 c 0.1464,-0.2878 0.2494,-0.6024 0.3019,-0.9296 z m -1.5325,-3.3287 c -0.4105,-0.2479 -0.8655,-0.3999 -1.3427,-0.4468 l -1.7097,-7.8086 c 0.6201,-0.2151 1.1528,-0.6105 1.5426,-1.1427 l 7.7146,2.3026 c 0.0152,0.2151 0.0687,0.4242 0.1591,0.6201 z m -22.4379,9.0841 5.9745,-1.7891 c 0.2333,0.3333 0.5227,0.6282 0.8559,0.866 l -5.5781,8.567 c -0.3858,-0.1616 -0.7883,-0.2429 -1.2023,-0.2429 -0.1187,0 -0.2368,0.01 -0.3646,0.0253 l -0.9619,-5.6166 c 0.7377,-0.2893 1.2512,-0.9998 1.2765,-1.8097 z m -6.7865,-8.6387 c 0.009,-0.0126 0.0187,-0.0263 0.0303,-0.0389 l 12.1016,4.1871 c -0.0318,0.1944 -0.051,0.3888 -0.051,0.5801 10e-4,0.3227 0.0444,0.6418 0.1287,0.9524 l -5.7963,1.7355 c -0.3741,-0.5342 -0.9816,-0.8544 -1.639,-0.8544 -0.1924,0 -0.3823,0.0283 -0.5671,0.0843 z m -1.7749,0.7332 c 0.2333,0.0328 0.4701,0.0126 0.6943,-0.0449 l 4.2355,6.6925 c -0.1464,0.201 -0.252,0.4298 -0.3171,0.6772 l -6.1336,0.3964 c -0.1899,-0.7155 -0.6191,-1.3417 -1.2205,-1.7805 z m -10.6681,-4.391 8.8735,2.4919 c 0.0252,0.5196 0.256,1.0089 0.6327,1.3638 l -2.7384,5.9403 c -0.261,-0.0672 -0.5069,-0.098 -0.7538,-0.098 -0.1086,0 -0.2146,0.008 -0.3212,0.0202 l -5.7271,-9.6723 c 0.0126,-0.0151 0.0252,-0.0303 0.0343,-0.0459 z m -0.3489,-2.498 c -0.1712,-0.1283 -0.3646,-0.2262 -0.5671,-0.2868 l -0.255,-3.6023 4.0639,0.2943 c 0.056,0.4611 0.209,0.9034 0.4484,1.3038 z m -9.332,-3.9391 c 0.0874,-0.1773 0.1561,-0.3606 0.2096,-0.5525 l 7.0137,0.509 0.2651,3.7846 c -0.1404,0.0652 -0.2711,0.149 -0.3933,0.248 z m 5.1646,11.4184 c -0.4988,-0.103 -0.9281,-0.0859 -1.4108,0.0419 l -4.7566,-10.2641 c 0.0752,-0.0545 0.15,-0.1121 0.2176,-0.1712 l 7.2521,4.0785 c -0.0167,0.0904 -0.0252,0.1772 -0.0252,0.2651 0,0.5105 0.2151,0.9892 0.5882,1.327 z m -15.2181,9.8909 c 0,-0.0777 -0.007,-0.152 -0.0126,-0.2267 l 11.8016,-4.5976 c 0.1682,0.2666 0.3737,0.508 0.604,0.715 l -7.1602,12.183 c -0.3489,-0.1212 -0.7044,-0.1838 -1.066,-0.1838 -0.2701,0 -0.5418,0.0409 -0.822,0.1186 l -4.2174,-5.8089 c 0.558,-0.6049 0.8726,-1.3896 0.8726,-2.1996 z m -5.0303,-8.8482 c 0.0278,0.006 0.0586,0.0126 0.0868,0.0172 l 0.6544,5.7508 c -1.2149,0.407 -2.0713,1.48 -2.2025,2.7475 l -2.903,0.2741 c -0.1707,-0.5736 -0.4943,-1.0896 -0.9402,-1.5012 z m -4.4946,-12.9338 13.7453,0.4964 c 0.0712,0.1389 0.1555,0.2737 0.2519,0.4095 l -8.0135,8.3645 c -0.3186,-0.2025 -0.6893,-0.3121 -1.069,-0.3121 -0.2116,0 -0.4201,0.0344 -0.6256,0.1051 l -5.3257,-7.1486 c 0.5569,-0.4999 0.921,-1.1735 1.0366,-1.9148 z m 3.6412,-12.3364 c 0.6726,0.0778 1.3296,-0.0949 1.9057,-0.4383 l 8.5407,9.84 c -0.4418,0.5706 -0.6852,1.2649 -0.6852,1.9869 0,0.0515 0.002,0.103 0.007,0.1546 l -13.465,-0.4888 c -0.2086,-0.8554 -0.7509,-1.5805 -1.5043,-2.0234 z m 13.3216,-21.7259 c 0.66,0.5928 1.5512,0.9074 2.4263,0.8256 l 4.9773,17.6257 -19.6108,-10.4297 z m 32.14,18.926 c -0.1525,0.3852 -0.2343,0.7801 -0.2343,1.179 0,0.0308 0.004,0.0642 0.007,0.0965 l -5.7716,1.3325 c -0.5166,-1.1679 -1.6729,-1.9319 -2.962,-1.9319 -1.0458,0 -2.0244,0.5135 -2.6318,1.3644 l -0.5045,-0.3752 c 0.0435,-0.157 0.0687,-0.3212 0.0687,-0.4863 0,-0.9917 -0.8099,-1.7981 -1.8006,-1.7981 -0.8095,0 -1.5073,0.5433 -1.7224,1.3018 l -3.5352,0.2974 c -0.1525,-0.4429 -0.4014,-0.8483 -0.7347,-1.1897 l 5.0611,-8.8179 c 1.1649,0.3065 2.3051,-0.047 3.1181,-0.8317 z m -6.0483,-17.9883 c 0.4449,0.3595 0.9872,0.5928 1.5659,0.6786 l 5.8023,15.7277 c -0.2267,0.1398 -0.4322,0.3065 -0.619,0.4978 l -11.6058,-9.8263 c 0.2,-0.4393 0.303,-0.8942 0.303,-1.3552 0,-0.5651 -0.1439,-1.115 -0.4115,-1.6068 z m 17.9893,-5.9322 c -0.0303,0.1747 -0.0459,0.3393 -0.0459,0.4984 0,0.054 0.002,0.1076 0.005,0.1616 l -12.8317,1.6961 c -0.4459,-1.3123 -1.6699,-2.2031 -3.0747,-2.2031 -0.1429,0 -0.2893,0.0116 -0.4448,0.0369 l -0.6635,-5.2444 c 0.3832,-0.2 0.716,-0.4944 0.968,-0.8554 z m 0.4434,-1.1957 -16.0695,-5.9029 c 0.0166,-0.1131 0.0252,-0.2242 0.0252,-0.3347 0,-0.2894 -0.0495,-0.5742 -0.1434,-0.8514 l 4.1305,-3.3902 c 1.0054,0.8327 2.5162,0.9634 3.6624,0.3055 l 8.5907,9.8849 c -0.0687,0.0909 -0.1348,0.1873 -0.1959,0.2888 z m 0.666,4.1769 -5.6226,10.2096 c -0.1681,0.0237 -0.3323,0.0712 -0.4853,0.1404 l -8.2387,-8.1433 c 0.3156,-0.4737 0.4989,-1.0064 0.5357,-1.5649 l 12.9858,-1.7168 c 0.1985,0.4146 0.4792,0.7801 0.8251,1.075 z m 15.3192,38.9533 h -0.001 z m -7.4546,-4.5369 7.2788,-3.8169 c 0.3707,0.3797 0.8155,0.6574 1.3084,0.8144 l -0.5822,6.0034 c -0.2,0.1181 -0.3772,0.2757 -0.5181,0.4625 l -7.5465,-2.2521 c 0.0652,-0.2504 0.097,-0.4978 0.097,-0.7458 0,-0.1489 -0.009,-0.3034 -0.0374,-0.4655 z m -3.2175,-2.7924 c -0.1556,0 -0.3146,0.0141 -0.4863,0.0439 l -2.1516,-7.6197 c 0.2368,-0.1525 0.4383,-0.363 0.5822,-0.612 l 11.6149,4.5855 c -0.0132,0.0969 -0.0192,0.1954 -0.0192,0.2949 0,0.4125 0.0838,0.819 0.2459,1.2114 l -7.0047,3.675 c -0.5822,-0.97 -1.6385,-1.579 -2.7812,-1.579 z m -12.0875,4.7516 8.8507,-1.168 c 0.1566,1.5532 1.4144,2.7863 3.0408,2.9075 l 1.7002,7.7631 c -0.7069,0.2217 -1.3245,0.6872 -1.7385,1.3083 l -12.1587,-9.0007 c 0.2176,-0.4443 0.3328,-0.9286 0.3328,-1.4179 0,-0.1308 -0.009,-0.2595 -0.0273,-0.3923 z m -1.2063,-2.1446 9.335,-9.9404 c 0.0217,0.005 0.0434,0.0101 0.0651,0.0126 l 2.2051,7.8071 c -0.6721,0.4095 -1.171,1.0432 -1.4043,1.789 l -9.4157,1.2412 c -0.203,-0.3505 -0.4701,-0.657 -0.7852,-0.9095 z m -20.04,4.9309 c 0.8484,0.6367 1.9593,0.8407 2.9681,0.5352 l 2.2562,4.2956 c -0.0753,0.0793 -0.144,0.1651 -0.2066,0.2555 l -8.8734,-2.4924 c -0.006,-0.0606 -0.0152,-0.1212 -0.0243,-0.1798 z m -5.3666,-13.1534 5.0864,8.0579 c -0.4545,0.4252 -0.7781,0.9604 -0.9372,1.5528 l -4.2486,-0.3106 -0.6383,-9.1103 c 0.2525,-0.0323 0.4984,-0.0969 0.7377,-0.1898 z m 20.557,9.1537 c -0.1206,0.2115 -0.2176,0.4352 -0.2863,0.6675 l -9.6304,0.0177 c -0.1656,-0.8387 -0.6508,-1.5866 -1.3487,-2.0799 l 2.4293,-5.664 c 0.8721,0.1075 1.7881,-0.203 2.4606,-0.7978 z m 13.0878,-11.576 -9.434,10.05 c -0.0717,-0.0197 -0.1464,-0.0353 -0.2242,-0.0495 l 0.4888,-8.2534 c 1.2831,-0.1782 2.3299,-1.0876 2.6753,-2.3298 l 6.4355,0.4979 c 0.0177,0.0283 0.0404,0.057 0.0586,0.0848 z m -5.1666,-9.8162 c 1.0023,0.1429 1.8658,-0.5984 1.9935,-1.5406 l 4.182,-0.7397 -0.158,9.3501 c -0.5924,0.2096 -1.0317,0.718 -1.1554,1.3598 l -6.0927,-0.4721 c -0.1247,-1.0387 -0.7387,-1.9516 -1.6512,-2.4546 z m 6.1982,-3.5821 -4.4981,0.7958 c -0.1212,-0.1848 -0.2772,-0.3449 -0.4544,-0.4701 l 5.1045,-9.2668 z m 1.2831,-0.2277 0.1591,-9.1901 c 0.009,0 0.0217,0 0.0343,0 0.5171,0 1.0306,-0.1257 1.4941,-0.3691 l 6.3982,6.7284 c -0.2469,0.453 -0.3807,0.9554 -0.3893,1.4719 z m 7.9302,-0.1041 c 0.1116,0.2909 0.2641,0.5631 0.4514,0.8064 l -8.5629,9.7829 0.1596,-9.1835 z m -16.5426,3.3191 -2.9863,5.7099 c -0.2742,-0.0298 -0.5423,-0.0242 -0.8382,0.0253 l -5.6686,-15.3601 c 0.3389,-0.0934 0.66,-0.2413 0.9529,-0.4378 l 8.2382,8.1469 c -0.1025,0.2287 -0.1555,0.4746 -0.1555,0.7266 0,0.4393 0.1646,0.8599 0.4575,1.1892 z m -12.0506,11.6173 5.7751,-1.3361 c 0.4044,0.8923 1.1826,1.5523 2.1263,1.7997 l -0.4908,8.3458 c -0.4746,0.0984 -0.9129,0.2974 -1.2937,0.5877 l -6.4381,-7.9332 c 0.2151,-0.4469 0.3247,-0.9114 0.3247,-1.3881 0,-0.0243 -0.003,-0.0515 -0.003,-0.0758 z m -8.1231,-0.875 c 0.3433,0 0.6761,-0.0995 0.9664,-0.2868 l 0.7342,0.5453 c -0.0555,0.2378 -0.0833,0.4671 -0.0833,0.6923 0,1.2053 0.6564,2.293 1.7007,2.856 l -2.3682,5.517 c -0.6853,-0.1691 -1.326,-0.1115 -1.9587,0.1409 l -5.0829,-8.059 c 0.5974,-0.565 0.9564,-1.3219 1.0089,-2.1344 l 3.467,-0.2928 c 0.2959,0.621 0.915,1.0215 1.6159,1.0215 z m -16.0963,9.1517 6.0326,-7.3536 c 0.2752,0.1762 0.5605,0.3075 0.8635,0.3933 l 0.6382,9.1078 -6.8339,-0.4964 c -0.0743,-0.6094 -0.3172,-1.181 -0.7004,-1.6511 z m -14.9157,-15.7979 -0.512,-5.8503 c 0.1439,-0.0702 0.2777,-0.1571 0.3989,-0.2621 l 19.8192,10.5418 c -0.0161,0.0359 -0.0313,0.0722 -0.0444,0.1076 l -16.787,-1.634 c -0.1525,-1.5113 -1.3649,-2.7338 -2.8747,-2.903 z m 2.753,4.176 16.6795,1.6229 c 0.0176,0.6322 0.2206,1.233 0.5913,1.7577 l -6.0983,7.4288 c -0.9655,-0.5171 -2.1769,-0.5044 -3.1373,0.0449 l -8.5523,-9.854 c 0.2303,-0.304 0.405,-0.6423 0.5171,-1.0003 z m -0.097,25.3822 c -0.0187,-0.1646 -0.0585,-0.3282 -0.1212,-0.4872 l 8.1232,-8.4776 c 0.7377,0.4746 1.6012,0.6463 2.4944,0.4165 l 4.7627,10.2652 c -0.4863,0.3524 -0.866,0.8271 -1.1053,1.379 z m 13.9296,5.0142 -11.6775,4.5536 c -0.5135,-1.0185 -1.5325,-1.7022 -2.6661,-1.7865 l -0.6575,-5.7852 c 0.3303,-0.1727 0.6045,-0.4317 0.7978,-0.7468 l 14.1406,3.0903 c 0,0.0272 -0.003,0.0535 -0.003,0.0797 10e-4,0.1879 0.0217,0.3833 0.0662,0.5949 z m 20.4943,-8.0843 c -0.3464,-0.256 -0.764,-0.3923 -1.1997,-0.3923 -0.1056,0 -0.2116,0.009 -0.3207,0.0278 l -2.2576,-4.2926 c 0.6165,-0.4944 1.0331,-1.1917 1.1796,-1.9764 l 9.5066,-0.0182 c 0.0561,0.5111 0.2333,0.9983 0.5237,1.4376 z m 0.7287,1.0478 7.6186,-5.3424 c 0.7696,0.5237 1.6911,0.7014 2.6192,0.4459 l 3.2484,8.3191 c -0.5449,0.3312 -0.9968,0.8003 -1.3053,1.3547 l -12.0941,-4.186 c 0,-0.007 0,-0.0136 0,-0.0202 0,-0.1944 -0.0308,-0.3858 -0.0868,-0.5711 z m -8.8897,-33.4402 -4.9515,8.6331 c -0.1848,-0.0788 -0.3747,-0.1394 -0.567,-0.1838 l 2.1172,-10.6969 c 0.5767,-0.0732 1.0877,-0.3898 1.4113,-0.8735 l 0.6231,0.1711 c -0.007,0.0839 -0.0126,0.1697 -0.0126,0.2566 0,1.0624 0.5231,2.0657 1.3795,2.6934 z m -4.6536,-2.5001 -2.1642,10.9231 c -0.2802,0.05 -0.5453,0.1313 -0.7912,0.2454 l -4.9551,-17.5485 c 0.2333,-0.1202 0.4509,-0.2686 0.6509,-0.4438 l 6.332,4.4975 c -0.0595,0.1919 -0.0903,0.3863 -0.0903,0.5823 0,0.7331 0.3923,1.3906 1.0179,1.744 z m -22.547,-10.2736 c 0.9721,0 1.8906,-0.4388 2.5081,-1.1882 l 7.4319,2.6363 c 0.0434,0.3293 0.1398,0.6484 0.2802,0.9423 l -11.7895,7.7494 c -0.2737,-0.3635 -0.6787,-0.6135 -1.1271,-0.6933 l -2.9186,-15.4544 2.5379,1.7052 c -0.1151,0.3388 -0.1773,0.6918 -0.1773,1.0498 0,1.7935 1.4609,3.2529 3.2544,3.2529 z m -17.295,6.1139 3.3074,-8.2878 c 0.0849,0.009 0.1692,0.0137 0.2555,0.0137 1.7941,0 3.2549,-1.4593 3.2549,-3.2544 0,-0.1207 -0.009,-0.2399 -0.0217,-0.36 l 1.981,-0.6302 c 0.4049,0.4898 0.9998,0.7529 1.6597,0.7226 l 2.9095,15.3635 c -0.2115,0.1298 -0.3923,0.303 -0.5362,0.51 l -11.7259,-1.8082 c -0.0409,-0.874 -0.4267,-1.6815 -1.0842,-2.2692 z m 0.7408,2.4157 h 5e-4 z m 68.0404,40.5701 c -0.2404,0 -0.4802,0.0232 -0.7196,0.0712 l -3.2867,-8.416 c 0.0601,-0.0444 0.1187,-0.0929 0.1747,-0.1444 l 12.4339,9.2052 c -0.0409,0.2015 -0.0586,0.3888 -0.0586,0.5757 0,1.6067 1.1735,2.9509 2.7338,3.2013 l -0.663,8.6993 c -0.0495,0.0156 -0.1,0.0318 -0.1464,0.0505 l -7.1945,-7.8787 c 0.2676,-0.5216 0.4105,-1.0998 0.4105,-1.6856 0,-2.0288 -1.6537,-3.6785 -3.6841,-3.6785 z M 486.003,213.7849 c 0.9226,0 1.6664,-0.7473 1.6664,-1.6698 0,-0.9201 -0.7438,-1.6659 -1.6664,-1.6659 -0.922,-0.002 -1.6693,0.7458 -1.6693,1.6659 0,0.9225 0.7473,1.6698 1.6693,1.6698 z"
     style="fill:#003a80;fill-rule:evenodd"
     id="path2" />
</svg>
